<?xml version="1.0" encoding="utf-8"?>
<!-- Generator: Adobe Illustrator 18.0.0, SVG Export Plug-In . SVG Version: 6.00 Build 0)  -->
<!DOCTYPE svg PUBLIC "-//W3C//DTD SVG 1.1//EN" "http://www.w3.org/Graphics/SVG/1.1/DTD/svg11.dtd">
<svg  version="1.1" id="Layer_1" xmlns="http://www.w3.org/2000/svg" xmlns:xlink="http://www.w3.org/1999/xlink" x="0px" y="0px"
	 viewBox="0 0 1920 1080" enable-background="new 0 0 1920 1080" xml:space="preserve">
	 <rect x="1" y="1" width="150" height="50" fill="none" stroke="blue"/>
<g >
	<g>
		<path fill="#FFFFFF" d="M1054.3,582.3h-12.8v43.3h12.8c13.8,0,22.7-9.4,22.7-21.5V604C1077,591.9,1068.2,582.3,1054.3,582.3z"/>
		<polygon fill="#FFFFFF" points="838.5,611.3 863.4,611.3 851,583.4 		"/>
		<path fill="#FFFFFF" d="M970.4,582.3h-12.8v43.3h12.8c13.8,0,22.7-9.4,22.7-21.5V604C993.1,591.9,984.3,582.3,970.4,582.3z"/>
		<path fill="#FFFFFF" d="M1057.6,567.6h-264c-20,0-36.2,16.2-36.2,36.2v0c0,20,16.2,36.2,36.2,36.2h264c20,0,36.2-16.2,36.2-36.2v0
			C1093.8,583.8,1077.6,567.6,1057.6,567.6z M795.2,631.5c-15.5,0-26.9-12.2-26.9-27.5v-0.2c0-15.2,11.3-27.7,27.1-27.7
			c9.7,0,15.5,3.4,20.9,8.5l-4.1,4.4c-4.5-4.3-9.6-7.3-16.8-7.3c-11.9,0-20.7,9.6-20.7,22v0.2c0,12.4,9,22.1,20.7,22.1
			c7.3,0,12.2-2.8,17.3-7.7l4,3.9C811,627.8,804.9,631.5,795.2,631.5z M872.2,631.4l-6.4-14.5H836l-6.5,14.5h-6.3l24.9-55.1h5.8
			l24.9,55.1H872.2z M936,631.4H931l-35.3-44.9v44.9h-6v-54.7h5.8l34.5,43.9v-43.9h6V631.4z M999.5,604c0,15.4-11.9,27.4-29.1,27.4
			h-19v-54.7h19c17.2,0,29.1,11.8,29.1,27.2V604z M1019.3,631.4h-6.2v-54.7h6.2V631.4z M1083.4,604c0,15.4-11.9,27.4-29.1,27.4h-19
			v-54.7h19c17.2,0,29.1,11.8,29.1,27.2V604z"/>
	</g>
	<g>
		<polygon fill="#FFFFFF" points="944.6,519.6 944.6,558.4 978.4,558.5 978.4,520 961.7,542.2 		"/>
		<polygon fill="#FFFFFF" points="757.4,520.1 757.4,558.4 791.3,558.4 791.3,520.5 774.6,542.7 		"/>
		<path fill="#FFFFFF" d="M1071.7,518.9c0-4.6-1.6-8.5-5-11.7c-3.3-3.3-7.1-4.9-11.7-4.9c-4.7,0-8.5,1.6-11.8,4.9
			c-3.2,3.2-4.8,7.1-4.8,11.7c0,4.6,1.6,8.5,4.8,11.8c3.3,3.2,7.1,4.8,11.8,4.8c4.6,0,8.4-1.6,11.7-4.8
			C1070.1,527.4,1071.7,523.5,1071.7,518.9z"/>
		<path fill="#FFFFFF" d="M884.6,518.9c0-4.6-1.6-8.5-5-11.7c-3.3-3.3-7.1-4.9-11.7-4.9c-4.7,0-8.5,1.6-11.8,4.9
			c-3.2,3.2-4.8,7.1-4.8,11.7c0,4.6,1.6,8.5,4.8,11.8c3.3,3.2,7.1,4.8,11.8,4.8c4.6,0,8.4-1.6,11.7-4.8
			C883,527.4,884.6,523.4,884.6,518.9z"/>
		<path fill="#FFFFFF" d="M1187.1,518.2v-62.2l-0.1,0v-16H823.5l-90.6,39.5v0.1h24.6v0.1h0.1l16.9,22.2l16.9-22.1v-0.2h24.6v78.9
			l51.9,0c-10.9,0-20.2-3.9-27.9-11.6c-7.7-7.8-11.6-17.1-11.6-28c0-11,3.9-20.3,11.6-28c7.8-7.8,17-11.7,28-11.7
			c11,0,20.2,3.9,28,11.7c7.8,7.7,11.7,17,11.7,28c0,10.8-3.9,20.2-11.7,28c-7.8,7.7-17,11.6-27.9,11.6l52.1,0v-79.3h24.5v0.1h0.1
			l16.9,22.1l16.9-22v-0.2h24.5v79.3l52.1,0c-11,0-20.2-3.9-28-11.6c-7.7-7.8-11.6-17.1-11.6-28c0-11,3.9-20.3,11.6-28
			c7.8-7.8,17-11.7,28-11.7c11,0,20.2,3.9,28,11.7c7.8,7.7,11.7,17,11.7,28c0,10.9-3.9,20.2-11.7,28c-7.8,7.7-17,11.6-28,11.6
			l40.4,0L1187.1,518.2z"/>
	</g>
</g>
</svg>
