<?xml version="1.0" encoding="utf-8"?>
<!-- Generator: Adobe Illustrator 18.0.0, SVG Export Plug-In . SVG Version: 6.00 Build 0)  -->
<!DOCTYPE svg PUBLIC "-//W3C//DTD SVG 1.1//EN" "http://www.w3.org/Graphics/SVG/1.1/DTD/svg11.dtd">
<svg version="1.1" id="Layer_1" xmlns="http://www.w3.org/2000/svg" xmlns:xlink="http://www.w3.org/1999/xlink" x="0px" y="0px"
	 viewBox="0 0 1920 1080" enable-background="new 0 0 1920 1080" xml:space="preserve">
<g>
	<g>
		<polygon fill="#FFFFFF" points="983.2,527.7 961.2,556.8 938.8,527.2 938.8,578.1 983.2,578.1 		"/>
		<polygon fill="#FFFFFF" points="738,528.3 716,557.5 693.6,527.8 693.6,578 738,578 		"/>
		<path fill="#FFFFFF" d="M1105.4,526.2c0-6-2.1-11.2-6.6-15.3c-4.3-4.3-9.3-6.4-15.3-6.4c-6.1,0-11.2,2.1-15.5,6.4
			c-4.2,4.2-6.3,9.3-6.3,15.3c0,6,2.1,11.2,6.3,15.5c4.3,4.2,9.3,6.3,15.5,6.3c6,0,11-2.1,15.3-6.3
			C1103.3,537.4,1105.4,532.2,1105.4,526.2z"/>
		<path fill="#FFFFFF" d="M860.2,526.2c0-6-2.1-11.2-6.6-15.3c-4.3-4.3-9.3-6.4-15.3-6.4c-6.1,0-11.2,2.1-15.5,6.4
			c-4.2,4.2-6.3,9.3-6.3,15.3c0,6,2.1,11.2,6.3,15.5c4.3,4.2,9.3,6.3,15.5,6.3c6,0,11-2.1,15.3-6.3
			C858.1,537.3,860.2,532.2,860.2,526.2z"/>
		<path fill="#FFFFFF" d="M1256.7,443.7L1256.7,443.7l-0.1-20.9H780.1l-118.7,51.7v0.1h32.2v0.2h0.2l22.2,29L738,475v-0.3h32.2V578
			l68.1,0c-14.3,0-26.5-5.2-36.6-15.2c-10-10.2-15.2-22.4-15.2-36.7c0-14.4,5.2-26.6,15.2-36.7c10.2-10.2,22.3-15.3,36.7-15.3
			c14.4,0,26.5,5.2,36.7,15.3c10.2,10,15.3,22.3,15.3,36.7c0,14.2-5.2,26.5-15.3,36.7c-10.2,10-22.3,15.2-36.6,15.2l68.3,0V474.2
			h32.1v0.1h0.2l22.1,29l22.1-28.8v-0.3h32.1v103.9l68.2,0c-14.4,0-26.5-5.2-36.7-15.2c-10-10.2-15.2-22.4-15.2-36.7
			c0-14.4,5.2-26.6,15.2-36.7c10.2-10.2,22.3-15.3,36.7-15.3c14.4,0,26.5,5.2,36.7,15.3c10.2,10,15.3,22.3,15.3,36.7
			c0,14.2-5.2,26.5-15.3,36.7c-10.2,10-22.3,15.2-36.6,15.2l52.9,0l110-48.3v66l-118.2,51.9H1083l-9.3-13.6c7.9-3.4,13-9.8,13-19.6
			v-0.2c0-6.3-1.9-11.1-5.6-14.8c-4.3-4.3-11-6.8-20.7-6.8h-30v63.4h17.6V637h7.8l12.8,19.2h20.2l0,0h45.6l122.3-53.7v-77.2l0,0
			V443.7z M1069.2,615.7c0,4.6-3.5,7.5-9.4,7.5h-11.7v-15.3h11.6c5.8,0,9.5,2.5,9.5,7.6V615.7z"/>
		<polygon fill="#FFFFFF" points="789.2,631.2 819.6,631.2 819.6,617.3 789.2,617.3 789.2,607.6 822.8,607.6 822.8,592.8 
			771.8,592.8 771.8,656.2 823.3,656.2 823.3,641.2 789.2,641.2 		"/>
		<polygon fill="#FFFFFF" points="726.7,632.6 712.4,592.8 693,592.8 718.5,656.2 734.7,656.2 760.2,592.8 741.1,592.8 		"/>
		<path fill="#FFFFFF" d="M865.3,640.8c-8.6,0-14.6-7.2-14.6-16.3v-0.2c0-8.9,6-16.2,14.6-16.2c5.8,0,9.9,2.9,13.3,7.2l12.7-9.9
			c-5.4-7.4-13.4-12.7-25.9-12.7c-18.5,0-32.1,14-32.1,31.8v0.2c0,18.2,14,31.6,31.5,31.6c13.4,0,21.2-5.8,27-13.8l-12.7-9.1
			C875.4,637.9,871.6,640.8,865.3,640.8z"/>
		<polygon fill="#FFFFFF" points="894.7,608.2 913.6,608.2 913.6,656.2 931.2,656.2 931.2,608.2 950.2,608.2 950.2,592.8 
			894.7,592.8 		"/>
		<path fill="#FFFFFF" d="M985.1,592.8c-18.8,0-33,14.2-33,31.8v0.2c0,17.5,14,31.6,32.8,31.6c18.8,0,33-14.2,33-31.8v-0.2
			C1017.9,606.8,1003.9,592.8,985.1,592.8z M1000.5,624.7c0,8.8-6.2,16.3-15.4,16.3c-9.3,0-15.7-7.7-15.7-16.5v-0.2
			c0-8.8,6.2-16.3,15.5-16.3c9.3,0,15.6,7.6,15.6,16.5V624.7z"/>
	</g>
</g>
</svg>
