<?xml version="1.0" standalone="no"?>
<!DOCTYPE svg PUBLIC "-//W3C//DTD SVG 1.1//EN" "http://www.w3.org/Graphics/SVG/1.1/DTD/svg11.dtd" >
<svg xmlns="http://www.w3.org/2000/svg">
<metadata>
This is a custom SVG webfont generated by Font Squirrel.
Copyright   : Copyright c 2009 by Tomas Brousil All rights reserved
Designer    : Tomas Brousil
Foundry     : Tomas Brousil
</metadata>
<defs>
<font id="webfont1y4zLvHb" horiz-adv-x="1116" >
<font-face units-per-em="2048" ascent="1638" descent="-410" />
<missing-glyph horiz-adv-x="614" />
<glyph unicode=" "  horiz-adv-x="614" />
<glyph unicode="&#x09;" horiz-adv-x="614" />
<glyph unicode="&#xa0;" horiz-adv-x="614" />
<glyph unicode="!" horiz-adv-x="624" d="M461 1434v-983h-297v983h297zM461 297v-297h-297v297h297z" />
<glyph unicode="&#x22;" horiz-adv-x="1003" d="M164 758l-41 676h338l-41 -676h-256zM584 758l-41 676h338l-41 -676h-256z" />
<glyph unicode="#" horiz-adv-x="1497" d="M631 0l112 356h-223l-112 -356h-261l113 356h-219v236h295l80 250h-195v235h271l114 357h260l-114 -357h223l115 357h260l-115 -357h221v-235h-297l-80 -250h197v-236h-272l-113 -356h-260zM676 842l-80 -250h223l80 250h-223z" />
<glyph unicode="$" horiz-adv-x="1306" d="M1194 973h-317q0 205 -234 205q-203 0 -203 -140q0 -70 53.5 -109.5t190.5 -64.5q276 -47 398 -158.5t122 -312.5q0 -184 -116.5 -291.5t-286.5 -119.5v-228h-297v283q-63 31 -107 76l-49 -113h-246v461h318q0 -104 65.5 -154.5t178.5 -50.5q92 0 152.5 37t60.5 106 q0 72 -52.5 109t-201.5 61q-276 49 -393 160t-117 311q0 184 111.5 291t279.5 121v227h297v-282q59 -33 100 -74l47 111h246v-461z" />
<glyph unicode="%" horiz-adv-x="1708" d="M231 0l986 1434h260l-985 -1434h-261zM713 1178v-242q0 -131 -80 -198.5t-215 -67.5t-215 67.5t-80 198.5v242q0 131 80 198.5t215 67.5t215 -67.5t80 -198.5zM481 936v242q0 66 -63.5 65.5t-63.5 -65.5v-242q0 -66 63.5 -66t63.5 66zM1585 498v-242q0 -131 -80 -198.5 t-215 -67.5t-215 67.5t-80 198.5v242q0 131 80 198.5t215 67.5t215 -67.5t80 -198.5zM1354 256v242q0 66 -63.5 65.5t-63.5 -65.5v-242q0 -66 63.5 -66t63.5 66z" />
<glyph unicode="&#x26;" horiz-adv-x="1337" d="M836 983v23q0 80 -51.5 126t-143.5 46q-90 0 -140 -46.5t-50 -123.5q0 -66 49 -109t131 -43h706v-276h-184v-580h-233l-52 115q-109 -135 -338 -135q-188 0 -308 114.5t-120 270.5q0 113 62.5 207t173.5 149q-215 94 -215 348q0 176 124 280.5t296 104.5q180 0 319 -127 l45 107h246v-451h-317zM836 422v158h-224q-80 0 -131 -46.5t-51 -117.5q0 -78 49 -119t142 -41q98 0 156.5 43t58.5 123z" />
<glyph unicode="'" horiz-adv-x="583" d="M164 758l-41 676h338l-41 -676h-256z" />
<glyph unicode="(" horiz-adv-x="643" d="M725 -229h-297q-326 383 -326 940q0 563 326 952h297q-152 -199 -239 -444.5t-87 -507.5q0 -254 87 -500.5t239 -439.5z" />
<glyph unicode=")" horiz-adv-x="643" d="M-82 1663h297q326 -383 326 -940q0 -563 -326 -952h-297q152 199 239 444.5t87 507.5q0 254 -87 500.5t-239 439.5z" />
<glyph unicode="*" horiz-adv-x="968" d="M61 1161l66 203l276 -119l-26 305h213l-27 -301l279 117l65 -203l-291 -67l197 -226l-172 -125l-158 265l-157 -265l-172 125l194 224z" />
<glyph unicode="+" horiz-adv-x="1048" d="M389 846v346h268v-346h330v-256h-330v-342h-268v342h-328v256h328z" />
<glyph unicode="," horiz-adv-x="583" d="M123 -236v574h338l-123 -574h-215z" />
<glyph unicode="-" horiz-adv-x="600" d="M61 406v256h478v-256h-478z" />
<glyph unicode="." horiz-adv-x="583" d="M123 0v338h338v-338h-338z" />
<glyph unicode="/" horiz-adv-x="714" d="M-86 -229l627 1892h260l-627 -1892h-260z" />
<glyph unicode="0" horiz-adv-x="1306" d="M866 461v510q0 100 -56 153.5t-155 53.5q-100 0 -157.5 -53.5t-57.5 -153.5v-510q0 -98 56.5 -151.5t154.5 -53.5q100 0 157.5 52.5t57.5 152.5zM1184 971v-510q0 -236 -142.5 -358.5t-390.5 -122.5q-246 0 -387 122.5t-141 358.5v510q0 236 142.5 359.5t389.5 123.5 q246 0 387.5 -123.5t141.5 -359.5z" />
<glyph unicode="1" horiz-adv-x="993" d="M82 0v276h287v836l-287 -205v322l287 205h317v-1158h266v-276h-870z" />
<glyph unicode="2" horiz-adv-x="1265" d="M1143 1014q0 -215 -207 -393l-397 -345h604v-276h-1020v276l594 529q109 94 108 201q0 80 -51 126t-139 46q-84 0 -139.5 -51.5t-55.5 -153.5v-72h-317v533h246l47 -113q131 133 313 133q170 0 292 -119.5t122 -320.5z" />
<glyph unicode="3" horiz-adv-x="1265" d="M1143 1049q0 -244 -219 -332q219 -88 219 -332q0 -184 -133 -294.5t-375 -110.5q-244 0 -378 111.5t-134 297.5v82h317v-49q0 -166 195 -166q90 0 135 45t45 125q0 72 -46 113t-126 41h-121v276h121q82 0 127 42t45 110q0 80 -45 125t-135 45q-88 0 -140.5 -53.5 t-54.5 -131.5v-30h-317v471h246l47 -111q131 131 307 131q170 2 295 -112.5t125 -292.5z" />
<glyph unicode="4" horiz-adv-x="1191" d="M440 0v276h164v123h-543v277l377 758h332l-387 -758h221v239h318v-239h229v-277h-229v-123h163v-276h-645z" />
<glyph unicode="5" horiz-adv-x="1265" d="M123 444v7h317v-25q0 -84 51.5 -127t139.5 -43q96 0 145 48t49 175q0 125 -48 174t-142 49q-152 0 -191 -112h-307l68 844h856v-277h-610l-31 -301q127 102 289 102q184 0 309 -117.5t125 -367.5q0 -246 -136.5 -369.5t-375.5 -123.5q-236 0 -372 119.5t-136 344.5z" />
<glyph unicode="6" horiz-adv-x="1265" d="M825 1004v20q-4 72 -60 113t-132 41q-88 0 -140.5 -46.5t-52.5 -125.5v-213q111 104 279 104q190 0 307 -121t117 -338q0 -209 -139.5 -333.5t-371 -124.5t-370.5 124.5t-139 333.5v551q0 209 127 337t287 128q186 0 313 -131l47 111h246v-430h-318zM633 641 q-88 0 -140.5 -52t-52.5 -140.5t52.5 -140.5t140.5 -52t140 52t52 141q1 192 -192 192z" />
<glyph unicode="7" horiz-adv-x="1183" d="M193 0l579 1157h-373v-184h-317v461h1020v-236l-559 -1198h-350z" />
<glyph unicode="8" horiz-adv-x="1245" d="M1122 1063q0 -209 -182 -318q223 -102 223 -354q0 -186 -140 -298.5t-398 -112.5q-264 0 -403.5 109.5t-139.5 301.5q0 248 221 354q-180 104 -180 318q0 176 133 283.5t365 107.5q236 0 368.5 -105.5t132.5 -285.5zM846 430q0 84 -58.5 132t-166.5 48q-106 0 -164 -49 t-58 -131q0 -80 58.5 -127t167.5 -47q106 0 163.5 47t57.5 127zM805 1022q0 72 -49 114t-135 42q-84 0 -132.5 -43t-48.5 -113t49.5 -112t135.5 -42q84 0 132 42t48 112z" />
<glyph unicode="9" horiz-adv-x="1265" d="M825 444v197q-111 -104 -278 -104q-190 0 -307 120.5t-117 337.5q0 209 139 334t370.5 125t371 -125t139.5 -334v-551q0 -217 -131 -340.5t-379 -123.5q-244 0 -377 111.5t-133 299.5v39h317v-8q0 -166 193 -166q88 0 140 48t52 140zM633 1178q-88 0 -140.5 -52.5 t-52.5 -140.5q0 -193 193 -192q88 0 140 52t52 140t-52 140.5t-140 52.5z" />
<glyph unicode=":" horiz-adv-x="583" d="M123 0v338h338v-338h-338zM123 727v338h338v-338h-338z" />
<glyph unicode=";" horiz-adv-x="583" d="M123 727v338h338v-338h-338zM123 -236v574h338l-123 -574h-215z" />
<glyph unicode="&#x3c;" horiz-adv-x="1048" d="M987 246l-926 344v258l926 344v-285l-604 -188l604 -189v-284z" />
<glyph unicode="=" horiz-adv-x="1048" d="M61 1102h926v-256h-926v256zM61 590h926v-256h-926v256z" />
<glyph unicode="&#x3e;" horiz-adv-x="1048" d="M61 1192l926 -344v-258l-926 -344v284l605 189l-605 188v285z" />
<glyph unicode="?" horiz-adv-x="1306" d="M504 846h149q106 0 170 48t64 128t-63.5 128t-170 48t-170 -48t-63.5 -128v-39h-297v39q0 197 144.5 314.5t386 117.5t386 -117.5t144.5 -314.5q0 -166 -103.5 -276.5t-279.5 -143.5v-151h-297v395zM801 297v-297h-297v297h297z" />
<glyph unicode="@" horiz-adv-x="2127" d="M578 403l45 259q39 209 148.5 316t281.5 107q197 0 282 -129l66 109h225l-131 -741q-23 -121 67.5 -121t174.5 139t84 379q0 254 -157 401.5t-433 147.5q-391 0 -657.5 -262.5t-266.5 -683.5q0 -254 158 -401.5t434 -147.5q236 0 436 106l72 -176q-240 -115 -508 -115 q-373 0 -585 197t-212 537q0 334 153 594t409 398t567 138q371 0 582.5 -196.5t211.5 -536.5q0 -326 -157.5 -523.5t-372.5 -197.5q-201 0 -264 145q-117 -166 -330 -165q-178 0 -268 109t-55 314zM924 682l-54 -299q-12 -72 28 -109.5t108 -37.5q78 0 136 50t75 138l43 238 q14 74 -34 120.5t-128 46.5q-147 0 -174 -147z" />
<glyph unicode="A" horiz-adv-x="1470" d="M0 0v276h152l395 1158h391l395 -1158h137v-276h-604v276h129l-41 130h-454l-41 -130h145v-276h-604zM727 1114l-139 -432h278z" />
<glyph unicode="B" horiz-adv-x="1368" d="M246 276v881h-164v277h766q193 0 305.5 -98.5t112.5 -282.5q0 -236 -183 -330q203 -92 203 -342q0 -184 -112.5 -282.5t-305.5 -98.5h-786v276h164zM563 580v-304h250q145 0 145 150q0 154 -145 154h-250zM563 1157v-301h230q145 0 145 152q0 150 -145 149h-230z" />
<glyph unicode="C" horiz-adv-x="1327" d="M928 922v24q-4 113 -72 172.5t-180 59.5q-119 0 -187.5 -62.5t-68.5 -181.5v-434q0 -119 67.5 -181.5t184.5 -62.5q119 0 187.5 62.5t68.5 181.5v12h317v-12q0 -254 -153.5 -387t-419.5 -133q-264 0 -417 134t-153 386v434q0 240 141.5 380t370.5 140q219 0 338 -131 l47 111h246v-512h-317z" />
<glyph unicode="D" horiz-adv-x="1429" d="M1010 520v393q0 119 -68 181.5t-184 62.5h-195v-881h191q119 0 187.5 62.5t68.5 181.5zM82 1434h676q264 0 416.5 -134.5t152.5 -386.5v-393q0 -254 -153.5 -387t-419.5 -133h-672v276h164v881h-164v277z" />
<glyph unicode="E" horiz-adv-x="1327" d="M246 276v881h-164v277h1163v-461h-317v184h-365v-301h457v-276h-457v-304h365v185h317v-461h-1163v276h164z" />
<glyph unicode="F" horiz-adv-x="1327" d="M788 276v-276h-706v276h164v881h-164v277h1163v-461h-317v184h-365v-332h457v-276h-457v-273h225z" />
<glyph unicode="G" horiz-adv-x="1357" d="M928 963v22q-8 193 -252 193q-119 0 -187.5 -62.5t-68.5 -181.5v-434q0 -119 67.5 -181.5t184.5 -62.5q119 0 187.5 62.5t68.5 181.5v18h-303v277h620v-795h-233l-47 106q-133 -127 -365 -126q-227 0 -362.5 133t-135.5 387v434q0 240 141.5 380t370.5 140 q225 0 342 -121l43 101h246v-471h-317z" />
<glyph unicode="H" horiz-adv-x="1634" d="M1389 1157v-881h163v-276h-645v276h164v304h-508v-304h164v-276h-645v276h164v881h-164v277h645v-277h-164v-301h508v301h-164v277h645v-277h-163z" />
<glyph unicode="I" horiz-adv-x="808" d="M563 1157v-881h164v-276h-645v276h164v881h-164v277h645v-277h-164z" />
<glyph unicode="J" horiz-adv-x="1265" d="M569 256q90 0 142.5 48t52.5 140v713h-205v277h686v-277h-164v-713q0 -225 -137 -344.5t-375 -119.5q-236 0 -372 119.5t-136 344.5v68h318v-68q0 -92 51 -140t139 -48z" />
<glyph unicode="K" horiz-adv-x="1613" d="M846 1157v277h686v-277h-135l-430 -360l438 -521h147v-276h-686v276h123l-264 318l-162 -137v-181h164v-276h-645v276h164v881h-164v277h645v-277h-164v-350l416 350h-133z" />
<glyph unicode="L" horiz-adv-x="1286" d="M788 1434v-277h-225v-881h365v226h317v-502h-1163v276h164v881h-164v277h706z" />
<glyph unicode="M" horiz-adv-x="1798" d="M563 809v-533h164v-276h-645v276h164v881h-164v277h471l346 -660l346 660h471v-277h-164v-881h164v-276h-645v276h164v533l-336 -639z" />
<glyph unicode="N" horiz-adv-x="1572" d="M563 850v-574h164v-276h-645v276h164v881h-164v277h461l528 -850v573h-164v277h645v-277h-163v-1157h-297z" />
<glyph unicode="O" horiz-adv-x="1347" d="M928 500v434q0 119 -67.5 181.5t-184.5 62.5q-119 0 -187.5 -62.5t-68.5 -181.5v-434q0 -119 67.5 -181.5t184.5 -62.5q119 0 187.5 62.5t68.5 181.5zM1245 934v-434q0 -254 -153.5 -387t-419.5 -133q-264 0 -417 134t-153 386v434q0 254 154 387t420 133 q264 0 416.5 -134t152.5 -386z" />
<glyph unicode="P" horiz-adv-x="1368" d="M563 477v-201h225v-276h-706v276h164v881h-164v277h754q233 0 362 -117t129 -361q0 -246 -129 -362.5t-362 -116.5h-273zM563 1157v-403h262q84 0 129 46t45 156q0 109 -45 155t-129 46h-262z" />
<glyph unicode="Q" horiz-adv-x="1347" d="M1061 -410l-389 390q-264 0 -417 134t-153 386v434q0 254 154 387t420 133q264 0 416.5 -134t152.5 -386v-434q0 -303 -221 -437l262 -247zM928 500v434q0 119 -67.5 181.5t-184.5 62.5q-119 0 -187.5 -62.5t-68.5 -181.5v-434q0 -119 67.5 -181.5t184.5 -62.5 q119 0 187.5 62.5t68.5 181.5z" />
<glyph unicode="R" horiz-adv-x="1437" d="M82 1157v277h754q231 0 361 -112t130 -335q0 -326 -272 -418l170 -293h192v-276h-397l-311 539h-146v-263h164v-276h-645v276h164v881h-164zM563 1157v-342h262q174 0 174 172q0 170 -174 170h-262z" />
<glyph unicode="S" horiz-adv-x="1265" d="M1174 973h-318q0 205 -233 205q-203 0 -203 -140q0 -70 53 -109.5t191 -64.5q276 -47 398 -158.5t122 -312.5q0 -199 -131 -306t-318 -107q-225 0 -358 133l-49 -113h-246v461h317q0 -104 65.5 -154.5t178.5 -50.5q92 0 152.5 37t60.5 106q0 72 -52 109t-202 61 q-276 49 -393 160t-117 311q0 199 127 306.5t311 107.5q221 0 351 -131l47 111h246v-461z" />
<glyph unicode="T" horiz-adv-x="1333" d="M303 0v276h205v881h-150v-184h-317v461h1251v-461h-317v184h-150v-881h205v-276h-727z" />
<glyph unicode="U" horiz-adv-x="1511" d="M20 1157v277h646v-277h-164v-657q0 -119 67.5 -181.5t184.5 -62.5q119 0 187.5 62.5t68.5 181.5v657h-164v277h645v-277h-164v-657q0 -254 -153.5 -387t-419.5 -133q-264 0 -417 134t-153 386v657h-164z" />
<glyph unicode="V" horiz-adv-x="1449" d="M733 350l258 807h-145v277h604v-277h-152l-395 -1157h-371l-395 1157h-137v277h604v-277h-129z" />
<glyph unicode="W" horiz-adv-x="1966" d="M1362 1157v277h604v-277h-154l-278 -1157h-358l-201 852l-199 -852h-358l-281 1157h-137v277h604v-277h-151l155 -751l219 1028h308l217 -1028l155 751h-145z" />
<glyph unicode="X" horiz-adv-x="1470" d="M1430 1434v-277h-144l-366 -434l366 -447h144v-276h-625v276h102l-180 240l-184 -240h123v-276h-625v276h143l367 435l-367 446h-143v277h625v-277h-103l180 -239l185 239h-123v277h625z" />
<glyph unicode="Y" horiz-adv-x="1388" d="M1389 1434v-277h-136l-399 -651v-230h205v-276h-727v276h205v230l-400 651h-137v277h625v-277h-115l203 -354l205 354h-154v277h625z" />
<glyph unicode="Z" horiz-adv-x="1204" d="M61 276l703 881h-385v-184h-318v461h1082v-277l-703 -881h385v185h318v-461h-1082v276z" />
<glyph unicode="[" horiz-adv-x="657" d="M616 1663v-277h-176v-1339h176v-276h-493v1892h493z" />
<glyph unicode="\" horiz-adv-x="714" d="M176 1663l627 -1892h-260l-627 1892h260z" />
<glyph unicode="]" horiz-adv-x="657" d="M41 -229v276h176v1339h-176v277h494v-1892h-494z" />
<glyph unicode="^" horiz-adv-x="1112" d="M403 1729h306l342 -963h-310l-192 649l-193 -649h-295z" />
<glyph unicode="_" horiz-adv-x="1044" d="M1034 -236h-1024v216h1024v-216z" />
<glyph unicode="`" horiz-adv-x="559" d="M518 1188h-231l-246 328h309z" />
<glyph unicode="a" horiz-adv-x="1157" d="M61 313.5q0 161.5 97.5 247.5t267.5 86q174 0 270 -90v148q0 63 -39 100t-104 37q-78 0 -110.5 -27t-32.5 -88h-297q0 174 112.5 266t327.5 92q205 0 322.5 -102t117.5 -297v-430h144v-256h-369l-43 100q-96 -121 -301 -120q-168 0 -265.5 86t-97.5 247.5zM358 324 q0 -88 168 -88q170 0 170 88t-170 88q-168 0 -168 -88z" />
<glyph unicode="b" horiz-adv-x="1187" d="M0 1260v256h461v-523q96 92 260 92q174 0 274.5 -108.5t100.5 -314.5v-259q0 -207 -100.5 -315t-276.5 -108q-188 0 -287 122l-43 -102h-225v1260h-164zM799 383v299q0 147 -168 147q-80 0 -125 -36.5t-45 -110.5v-299q0 -74 45 -110.5t123 -36.5q170 0 170 147z" />
<glyph unicode="c" horiz-adv-x="1095" d="M1024 659h-297v5q0 166 -170 165q-168 0 -168 -147v-299q0 -74 45 -110.5t123 -36.5q170 0 170 147v23h297v-3q0 -207 -125 -315t-342 -108q-215 0 -340 108.5t-125 314.5v259q0 203 112.5 313t293 110t258.5 -120l43 100h225v-406z" />
<glyph unicode="d" horiz-adv-x="1208" d="M92 403v259q0 207 100.5 315t274.5 108q162 0 260 -92v267h-164v256h461v-1260h164v-256h-389l-43 100q-98 -121 -287 -120q-176 0 -276.5 108t-100.5 315zM389 682v-299q0 -147 170 -147q78 0 123 36.5t45 110.5v299q0 74 -45 110.5t-125 36.5q-168 0 -168 -147z" />
<glyph unicode="e" d="M725 348h297q-20 -182 -141 -275t-324 -93q-213 0 -339 108.5t-126 314.5v259q0 207 125 315t342 108q215 0 340 -108.5t125 -314.5v-222h-635v-57q0 -70 43 -108.5t125 -38.5q139 -1 168 112zM389 682v-27h338v27q0 147 -168 147q-80 0 -125 -36.5t-45 -110.5z" />
<glyph unicode="f" horiz-adv-x="788" d="M61 0v256h164v553h-184v256h184v72q0 92 15.5 158.5t53.5 123t101.5 81t160.5 34.5q29 3 61 3q77 0 171 -17v-244q-47 2 -84 2q-94 0 -131 -14q-51 -20 -51 -117v-82h266v-256h-266v-553h164v-256h-625z" />
<glyph unicode="g" horiz-adv-x="1187" d="M92 465v197q0 207 100.5 315t274.5 108q188 0 287 -122l45 102h389v-256h-164v-815q0 -207 -125 -315.5t-342 -108.5q-215 0 -340 108.5t-125 315.5v2h297v-23q0 -147 168 -147q80 0 125 37t45 110v160q-98 -92 -258 -92q-176 0 -276.5 108.5t-100.5 315.5zM389 682v-238 q0 -147 170 -147q78 0 123 37t45 110v238q0 74 -45 110.5t-125 36.5q-168 0 -168 -147z" />
<glyph unicode="h" horiz-adv-x="1361" d="M543 1516v-525q94 94 260 94q174 0 274.5 -108.5t100.5 -314.5v-406h163v-256h-460v682q0 147 -168 147q-80 0 -125 -36.5t-45 -110.5v-426h164v-256h-625v256h164v1004h-164v256h461z" />
<glyph unicode="i" horiz-adv-x="747" d="M246 1219v297h297v-297h-297zM543 1065v-809h164v-256h-625v256h164v553h-164v256h461z" />
<glyph unicode="j" horiz-adv-x="706" d="M246 1219v297h297v-297h-297zM246 -33v842h-164v256h461v-1088q0 -233 -109 -332q-73 -66 -215 -67q-70 0 -158 16v244q28 -2 52 -2q62 0 92 16q41 21 41 115z" />
<glyph unicode="k" horiz-adv-x="1351" d="M1311 256v-256h-328l-303 430l-137 -115v-59h143v-256h-604v256h164v1004h-164v256h461v-918l248 211h-115v256h604v-256h-147l-224 -186l258 -367h144z" />
<glyph unicode="l" horiz-adv-x="747" d="M543 1516v-1260h164v-256h-625v256h164v1004h-164v256h461z" />
<glyph unicode="m" horiz-adv-x="1873" d="M1853 0h-460v709q0 121 -138 120q-139 0 -139 -120v-453h144v-256h-441v709q0 121 -137 120q-139 0 -139 -120v-453h143v-256h-604v256h164v553h-164v256h389l43 -104q90 125 266 124q197 0 283 -147q88 147 285 147q160 0 251 -98t91 -285v-446h163v-256z" />
<glyph unicode="n" horiz-adv-x="1361" d="M1341 0h-460v682q0 147 -168 147q-80 0 -125 -36.5t-45 -110.5v-426h164v-256h-625v256h164v553h-164v256h389l43 -102q100 123 289 122q174 0 274.5 -108.5t100.5 -314.5v-406h163v-256z" />
<glyph unicode="o" d="M1024 662v-259q0 -207 -125 -315t-342 -108q-215 0 -340 108.5t-125 314.5v259q0 207 125 315t342 108q215 0 340 -108t125 -315zM727 383v299q0 147 -168 147q-80 0 -125 -36.5t-45 -110.5v-299q0 -74 45 -110.5t123 -36.5q170 0 170 147z" />
<glyph unicode="p" horiz-adv-x="1269" d="M1178 662v-259q0 -207 -100.5 -315t-276.5 -108q-162 0 -258 92v-226h164v-256h-625v256h164v963h-164v256h389l43 -102q98 123 289 122q174 0 274.5 -108t100.5 -315zM881 383v299q0 147 -168 147q-80 0 -125 -36.5t-45 -110.5v-299q0 -74 45 -110.5t123 -36.5 q170 0 170 147z" />
<glyph unicode="q" horiz-adv-x="1187" d="M727 -154v226q-98 -92 -258 -92q-176 0 -276.5 108.5t-100.5 314.5v259q0 207 100.5 315t274.5 108q188 0 287 -122l45 102h389v-256h-164v-963h164v-256h-625v256h164zM389 682v-299q0 -147 170 -147q78 0 123 36.5t45 110.5v299q0 74 -45 110.5t-125 36.5 q-168 0 -168 -147z" />
<glyph unicode="r" horiz-adv-x="901" d="M901 1075v-266q-65 8 -119 8q-91 0 -148 -22q-91 -35 -91 -113v-426h164v-256h-625v256h164v553h-164v256h389l51 -119q68 84 168 119q59 20 121 20q44 0 90 -10z" />
<glyph unicode="s" horiz-adv-x="1054" d="M973 717h-297q0 123 -158 123q-139 0 -139 -82q0 -25 14.5 -42.5t51 -30.5t61.5 -18l86 -18q55 -10 90 -19t87 -27.5t85 -43t65.5 -60.5t48 -89.5t15.5 -118.5q0 -139 -103.5 -225t-252.5 -86q-197 0 -287 120l-43 -100h-225v348h297q0 -123 168 -123q150 0 149 82 q0 31 -29.5 52.5t-63.5 30.5t-99 22q-74 14 -113 23t-105.5 37t-101.5 62.5t-63.5 97t-28.5 144.5q0 121 91 215t255 94q184 0 277 -122l43 102h225v-348z" />
<glyph unicode="t" horiz-adv-x="849" d="M502 809v-436q0 -96 51 -117q37 -15 131 -15q38 0 84 3v-244q-95 -17 -172 -17q-32 0 -60 3q-97 10 -161 34.5t-101.5 81t-53 123t-15.5 158.5v426h-164v256h164v287l297 90v-377h266v-256h-266z" />
<glyph unicode="u" horiz-adv-x="1320" d="M20 1065h461v-682q0 -147 168 -147q80 0 125 36.5t45 110.5v426h-164v256h461v-809h164v-256h-389l-45 102q-98 -123 -287 -122q-174 0 -274.5 108.5t-100.5 314.5v406h-164v256z" />
<glyph unicode="v" horiz-adv-x="1304" d="M842 0h-377l-305 809h-140v256h584v-256h-133l193 -543l192 543h-135v256h563v-256h-137z" />
<glyph unicode="w" horiz-adv-x="1753" d="M727 0h-334l-252 809h-121v256h574v-256h-154l131 -473l168 729h297l166 -729l131 473h-153v256h553v-256h-121l-250 -809h-334l-151 621z" />
<glyph unicode="x" horiz-adv-x="1218" d="M41 0v256h102l289 266l-289 287h-102v256h543v-256h-78l123 -133l125 133h-78v256h502v-256h-103l-291 -266l291 -287h103v-256h-543v256h78l-125 133l-123 -133h78v-256h-502z" />
<glyph unicode="y" horiz-adv-x="1304" d="M297 -410v256h217l55 154h-104l-305 809h-140v256h584v-256h-133l193 -543l192 543h-135v256h563v-256h-137l-365 -963h119v-256h-604z" />
<glyph unicode="z" horiz-adv-x="1075" d="M82 256l543 553h-246v-123h-297v379h911v-256l-542 -553h245v123h297v-379h-911v256z" />
<glyph unicode="{" horiz-adv-x="698" d="M164 92v426q0 61 -62 62h-102v276h102q61 0 62 62v423q0 143 88 232.5t231 89.5h174v-277h-114q-61 0 -62 -61v-332q0 -193 -143 -276q143 -84 143 -275v-333q0 -61 62 -62h114v-276h-174q-143 0 -231 89t-88 232z" />
<glyph unicode="|" horiz-adv-x="512" d="M123 -276v1986h266v-1986h-266z" />
<glyph unicode="}" horiz-adv-x="698" d="M535 1341v-426q0 -61 61 -61h102v-276h-102q-61 0 -61 -62v-424q0 -143 -88.5 -232t-231.5 -89h-174v276h115q61 0 61 62v331q0 193 143 277q-143 84 -143 274v334q0 61 -61 61h-115v277h174q143 0 231.5 -89.5t88.5 -232.5z" />
<glyph unicode="~" horiz-adv-x="1048" d="M70 655q74 145 137 195.5t133 50.5q74 0 206 -73.5t152 -73.5q49 0 123 123l160 -99q-74 -145 -137.5 -195.5t-132.5 -50.5q-74 0 -216.5 74t-162.5 74q-29 0 -103 -123z" />
<glyph unicode="&#xa1;" horiz-adv-x="624" d="M164 -369v983h297v-983h-297zM164 768v297h297v-297h-297z" />
<glyph unicode="&#xa2;" horiz-adv-x="1136" d="M1055 1028h-297v19q-8 152 -189 151q-190 0 -190 -147v-299q0 -147 188 -148q190 0 191 148v22h297v-2q0 -170 -88 -274.5t-250 -137.5v-237h-297v237q-162 31 -250 135.5t-88 276.5v258q0 172 92 278.5t246 135.5v235h297v-274q43 -31 69 -74l43 103h226v-406z" />
<glyph unicode="&#xa3;" horiz-adv-x="1245" d="M211 834v196q0 203 112.5 313.5t292.5 110.5q178 0 263 -111l39 91h245v-451h-317v25q0 170 -160 170q-72 0 -115 -37t-43 -111v-196h334v-236h-334v-322h635v-276h-1122v276h170v322h-170v236h170z" />
<glyph unicode="&#xa4;" horiz-adv-x="1345" d="M113 719q0 162 75 301l-182 184l180 180l185 -184q133 78 301 78q166 0 299 -78l192 193l183 -181l-193 -192q78 -135 78 -301q0 -168 -78 -301l184 -185l-180 -180l-184 185q-137 -78 -301 -78q-172 0 -303 78l-189 -189l-180 180l188 189q-75 139 -75 301zM410 719 q0 -133 73.5 -218t188 -85t188.5 85t74 218t-74 218t-188.5 85t-188 -85t-73.5 -218z" />
<glyph unicode="&#xa5;" horiz-adv-x="1388" d="M182 502v235h211l-256 420h-137v277h625v-277h-115l203 -354l205 354h-154v277h625v-277h-136l-258 -420h213v-235h-354v-226h205v-276h-727v276h205v226h-355z" />
<glyph unicode="&#xa6;" horiz-adv-x="512" d="M123 961v749h266v-749h-266zM123 -276v749h266v-749h-266z" />
<glyph unicode="&#xa7;" horiz-adv-x="1265" d="M1184 557q0 -174 -129 -278q129 -96 129 -277q0 -211 -145.5 -321.5t-405.5 -110.5t-405.5 111.5t-145.5 324.5v35h317v-35q0 -160 234 -160q223 0 223 134q0 53 -36 75.5t-109 34.5l-236 41q-393 70 -393 336q0 172 129 276q-129 98 -129 279q0 211 145.5 321.5 t405.5 110.5t405.5 -111.5t145.5 -324.5v-35h-318v35q0 160 -233 160q-223 0 -223 -134q0 -53 35.5 -75.5t109.5 -34.5l236 -41q393 -70 393 -336zM475 643l-31 6q-35 -43 -34 -108q0 -94 145 -119l236 -41l28 -6q37 47 37 108q0 94 -145 119z" />
<glyph unicode="&#xa8;" horiz-adv-x="798" d="M41 1198v277h256v-277h-256zM461 1198v277h256v-277h-256z" />
<glyph unicode="&#xa9;" horiz-adv-x="1802" d="M369 717q0 -252 145 -402.5t387 -150.5t387.5 150.5t145.5 402.5t-145.5 402.5t-387.5 150.5t-387 -150.5t-145 -402.5zM164 717q0 336 200.5 536.5t536.5 200.5t536.5 -200.5t200.5 -536.5t-200.5 -536.5t-536.5 -200.5t-536.5 200.5t-200.5 536.5zM1047 602h204v-6 q0 -156 -94 -238t-258 -82q-162 0 -255 82t-93 238v244q0 156 94 236.5t258 80.5q162 0 255 -81t93 -236v-9h-204v9q0 139 -144 139q-147 0 -147 -139v-244q0 -139 143 -139q147 0 148 139v6z" />
<glyph unicode="&#xaa;" horiz-adv-x="763" d="M61 971q0 102 61.5 158.5t164.5 56.5q90 0 147 -45v67q0 57 -53 57.5t-53 -44.5h-234q0 113 74 173t215 60q131 0 209 -67.5t78 -192.5v-223h73v-203h-251l-31 55q-59 -68 -176 -67q-102 0 -163 55.5t-61 159.5zM297 979q0 -37 70 -37q59 0 67 33v4q0 35 -67 35 q-70 0 -70 -35z" />
<glyph unicode="&#xab;" horiz-adv-x="1073" d="M516 94l-475 303v271l475 303v-297l-231 -142l231 -141v-297zM1012 94l-475 303v271l475 303v-297l-232 -142l232 -141v-297z" />
<glyph unicode="&#xac;" horiz-adv-x="1048" d="M61 846h926v-598h-268v342h-658v256z" />
<glyph unicode="&#xad;" horiz-adv-x="600" d="M61 406v256h478v-256h-478z" />
<glyph unicode="&#xae;" horiz-adv-x="749" d="M61 1120.5q0 143.5 85 228.5t228.5 85t228.5 -85t85 -228.5t-85 -228.5t-228.5 -85t-228.5 85t-85 228.5zM147 1120.5q0 -106.5 62.5 -171t165 -64.5t165 64.5t62.5 171t-62.5 171t-165 64.5t-165 -64.5t-62.5 -171zM530 1178q0 -96 -71 -119l65 -119h-112l-58 111h-26 v-111h-101v360h174q129 1 129 -122zM430 1175.5q0 36.5 -33 36.5h-69v-73h69q33 0 33 36.5z" />
<glyph unicode="&#xaf;" horiz-adv-x="679" d="M41 1219v215h598v-215h-598z" />
<glyph unicode="&#xb0;" horiz-adv-x="720" d="M41 1134.5q0 141.5 89 230.5t230.5 89t230.5 -89t89 -230.5t-89 -230.5t-230.5 -89t-230.5 89t-89 230.5zM233 1134.5q0 -57.5 35 -92t92.5 -34.5t92 34.5t34.5 92t-34.5 92.5t-92 35t-92.5 -35t-35 -92.5z" />
<glyph unicode="&#xb1;" horiz-adv-x="1048" d="M389 969v346h268v-346h330v-256h-330v-342h-268v342h-328v256h328zM61 256h926v-256h-926v256z" />
<glyph unicode="&#xb2;" horiz-adv-x="794" d="M672 1204q0 -147 -174 -260l-95 -63h259v-201h-560v201l295 235q45 31 45 70q0 57 -55 57q-18 0 -34.5 -15.5t-18.5 -47.5v-29h-232v283h179l28 -37q61 47 142 47q106 0 163.5 -61.5t57.5 -178.5z" />
<glyph unicode="&#xb3;" horiz-adv-x="813" d="M690 1225q0 -119 -100 -168q100 -51 100 -166q0 -98 -73.5 -159.5t-206.5 -61.5q-135 0 -211 62.5t-76 162.5v55h223v-26q0 -53 55 -54q51 0 52 50q0 53 -56 53h-16v168h16q55 0 56 53q0 49 -52 49q-23 0 -38 -17.5t-17 -41.5v-21h-223v273h178l23 -37q61 47 149 47 q94 0 155.5 -58.5t61.5 -162.5z" />
<glyph unicode="&#xb4;" horiz-adv-x="559" d="M272 1188h-231l168 328h309z" />
<glyph unicode="&#xb5;" horiz-adv-x="1177" d="M123 -410v1475h297v-682q0 -147 168 -147q80 0 125 36.5t45 110.5v682h297v-1065h-226l-45 102q-98 -123 -286 -122q-41 0 -78 6v-396h-297z" />
<glyph unicode="&#x3bc;" horiz-adv-x="1177" d="M123 -410v1475h297v-682q0 -147 168 -147q80 0 125 36.5t45 110.5v682h297v-1065h-226l-45 102q-98 -123 -286 -122q-41 0 -78 6v-396h-297z" />
<glyph unicode="&#xb6;" horiz-adv-x="1224" d="M1102 1434v-1434h-277v1157h-92v-1157h-276v717h-47q-369 0 -369 360q0 356 369 357h692z" />
<glyph unicode="&#xb7;" horiz-adv-x="583" d="M123 549v338h338v-338h-338z" />
<glyph unicode="&#xb8;" horiz-adv-x="493" d="M88 -418l-47 131q170 4 170 51.5t-170 51.5l47 123q164 18 264.5 -25t100.5 -153.5t-100.5 -153.5t-264.5 -25z" />
<glyph unicode="&#xb9;" horiz-adv-x="618" d="M82 680v201h137v319l-137 -98v233l137 99h232v-553h127v-201h-496z" />
<glyph unicode="&#xba;" horiz-adv-x="729" d="M668 1178v-146q0 -135 -81 -205.5t-222.5 -70.5t-222.5 70.5t-81 205.5v146q0 135 81 205.5t222.5 70.5t222.5 -70.5t81 -205.5zM434 1020v170q0 61 -69.5 61t-69.5 -61v-170q0 -63 69.5 -63t69.5 63z" />
<glyph unicode="&#xbb;" horiz-adv-x="1073" d="M557 971l475 -303v-271l-475 -303v297l231 141l-231 142v297zM61 971l476 -303v-271l-476 -303v297l232 141l-232 142v297z" />
<glyph unicode="&#xbc;" horiz-adv-x="1708" d="M168 680v201h137v319l-137 -98v233l137 99h232v-553h127v-201h-496zM1180 0v180h73v31h-272v201l166 342h242l-177 -342h41v49l230 41v-90h96v-201h-96v-31h73v-180h-376zM231 0l986 1434h260l-985 -1434h-261z" />
<glyph unicode="&#xbd;" horiz-adv-x="1708" d="M231 0l986 1434h260l-985 -1434h-261zM1595 524q0 -147 -174 -260l-94 -63h258v-201h-559v201l295 235q45 31 45 70q0 57 -55 57q-18 0 -34.5 -15.5t-19.5 -47.5v-29h-231v283h178l29 -37q61 47 141 47q106 0 163.5 -61.5t57.5 -178.5zM168 680v201h137v319l-137 -98v233 l137 99h232v-553h127v-201h-496z" />
<glyph unicode="&#xbe;" horiz-adv-x="1708" d="M231 0l986 1434h260l-985 -1434h-261zM690 1225q0 -119 -100 -168q100 -51 100 -166q0 -98 -73.5 -159.5t-206.5 -61.5q-135 0 -211 62.5t-76 162.5v55h223v-26q0 -53 55 -54q51 0 52 50q0 53 -56 53h-16v168h16q55 0 56 53q0 49 -52 49q-23 0 -38 -17.5t-17 -41.5v-21 h-223v273h178l23 -37q61 47 149 47q94 0 155.5 -58.5t61.5 -162.5zM1180 0v180h73v31h-272v201l166 342h242l-177 -342h41v49l230 41v-90h96v-201h-96v-31h73v-180h-376z" />
<glyph unicode="&#xbf;" horiz-adv-x="1306" d="M803 219h-150q-106 0 -169.5 -48t-63.5 -128t63.5 -128t170 -48t170 48t63.5 128v39h297v-39q0 -197 -144.5 -314.5t-386 -117.5t-386 117.5t-144.5 314.5q0 166 103.5 276.5t279.5 143.5v151h297v-395zM506 768v297h297v-297h-297z" />
<glyph unicode="&#xc0;" horiz-adv-x="1470" d="M0 0v276h152l395 1158h391l395 -1158h137v-276h-604v276h129l-41 130h-454l-41 -130h145v-276h-604zM727 1114l-139 -432h278zM932 1516h-252l-246 296h330z" />
<glyph unicode="&#xc1;" horiz-adv-x="1470" d="M0 0v276h152l395 1158h391l395 -1158h137v-276h-604v276h129l-41 130h-454l-41 -130h145v-276h-604zM727 1114l-139 -432h278zM809 1516h-252l168 296h330z" />
<glyph unicode="&#xc2;" horiz-adv-x="1470" d="M0 0v276h152l395 1158h391l395 -1158h137v-276h-604v276h129l-41 130h-454l-41 -130h145v-276h-604zM727 1114l-139 -432h278zM909 1812l195 -296h-273l-92 143l-92 -143h-264l195 296h331z" />
<glyph unicode="&#xc3;" horiz-adv-x="1470" d="M0 0v276h152l395 1158h391l395 -1158h137v-276h-604v276h129l-41 130h-454l-41 -130h145v-276h-604zM727 1114l-139 -432h278zM492 1495l-160 98q74 145 137 195.5t133 50.5q55 0 115.5 -33.5t106.5 -67.5t69 -34q29 0 102 123l160 -98q-74 -145 -137.5 -195.5 t-132.5 -50.5q-55 0 -115.5 33.5t-107 67.5t-68.5 34q-28 0 -102 -123z" />
<glyph unicode="&#xc4;" horiz-adv-x="1470" d="M0 0v276h152l395 1158h391l395 -1158h137v-276h-604v276h129l-41 130h-454l-41 -130h145v-276h-604zM727 1114l-139 -432h278zM385 1526v276h256v-276h-256zM846 1526v276h256v-276h-256z" />
<glyph unicode="&#xc5;" horiz-adv-x="1470" d="M0 0v276h152l395 1158h391l395 -1158h137v-276h-604v276h129l-41 130h-454l-41 -130h145v-276h-604zM727 1114l-139 -432h278zM504 1677.5q0 96.5 66.5 156.5t173 60t173 -60t66.5 -156.5t-66.5 -157t-173 -60.5t-173 60.5t-66.5 157zM678 1677q0 -82 65.5 -82t65.5 82 t-65.5 82t-65.5 -82z" />
<glyph unicode="&#xc6;" horiz-adv-x="2054" d="M809 0v276h164v130h-406l-67 -130h104v-276h-604v276h152l489 881h-166v277h1497v-461h-317v184h-365v-301h457v-276h-457v-304h365v185h317v-461h-1163zM711 682h262v498z" />
<glyph unicode="&#xc7;" horiz-adv-x="1327" d="M928 922v24q-4 113 -72 172.5t-180 59.5q-119 0 -187.5 -62.5t-68.5 -181.5v-434q0 -119 67.5 -181.5t184.5 -62.5q119 0 187.5 62.5t68.5 181.5v12h317v-12q0 -254 -153.5 -387t-419.5 -133q-264 0 -417 134t-153 386v434q0 240 141.5 380t370.5 140q219 0 338 -131 l47 111h246v-512h-317zM514 -418l-47 131q170 4 170 51.5t-170 51.5l47 123q164 18 264.5 -25t100.5 -153.5t-100.5 -153.5t-264.5 -25z" />
<glyph unicode="&#xc8;" horiz-adv-x="1327" d="M246 276v881h-164v277h1163v-461h-317v184h-365v-301h457v-276h-457v-304h365v185h317v-461h-1163v276h164zM872 1516h-251l-246 296h330z" />
<glyph unicode="&#xc9;" horiz-adv-x="1327" d="M246 276v881h-164v277h1163v-461h-317v184h-365v-301h457v-276h-457v-304h365v185h317v-461h-1163v276h164zM750 1516h-252l168 296h329z" />
<glyph unicode="&#xca;" horiz-adv-x="1327" d="M246 276v881h-164v277h1163v-461h-317v184h-365v-301h457v-276h-457v-304h365v185h317v-461h-1163v276h164zM850 1812l194 -296h-272l-92 143l-92 -143h-264l194 296h332z" />
<glyph unicode="&#xcb;" horiz-adv-x="1327" d="M246 276v881h-164v277h1163v-461h-317v184h-365v-301h457v-276h-457v-304h365v185h317v-461h-1163v276h164zM326 1526v276h256v-276h-256zM786 1526v276h256v-276h-256z" />
<glyph unicode="&#xcc;" horiz-adv-x="808" d="M563 1157v-881h164v-276h-645v276h164v881h-164v277h645v-277h-164zM551 1518h-252l-246 297h330z" />
<glyph unicode="&#xcd;" horiz-adv-x="808" d="M563 1157v-881h164v-276h-645v276h164v881h-164v277h645v-277h-164zM510 1516h-252l168 296h330z" />
<glyph unicode="&#xce;" horiz-adv-x="808" d="M563 1157v-881h164v-276h-645v276h164v881h-164v277h645v-277h-164zM569 1812l195 -296h-272l-93 143l-92 -143h-264l195 296h331z" />
<glyph unicode="&#xcf;" horiz-adv-x="808" d="M86 1526v276h256v-276h-256zM465 1526v276h256v-276h-256zM563 1157v-881h164v-276h-645v276h164v881h-164v277h645v-277h-164z" />
<glyph unicode="&#xd0;" horiz-adv-x="1429" d="M123 608v215h123v334h-164v277h676q264 0 416.5 -134.5t152.5 -386.5v-393q0 -254 -153.5 -387t-419.5 -133h-672v276h164v332h-123zM1010 520v393q0 119 -68 181.5t-184 62.5h-195v-334h240v-215h-240v-332h191q119 0 187.5 62.5t68.5 181.5z" />
<glyph unicode="&#xd1;" horiz-adv-x="1572" d="M563 850v-574h164v-276h-645v276h164v881h-164v277h461l528 -850v573h-164v277h645v-277h-163v-1157h-297zM565 1495l-159 98q74 145 137 195.5t133 50.5q55 0 115.5 -33.5t106.5 -67.5t69 -34q29 0 102 123l160 -98q-74 -145 -137.5 -195.5t-133.5 -50.5 q-55 0 -115.5 33.5t-106.5 67.5t-68 34q-29 0 -103 -123z" />
<glyph unicode="&#xd2;" horiz-adv-x="1347" d="M928 500v434q0 119 -67.5 181.5t-184.5 62.5q-119 0 -187.5 -62.5t-68.5 -181.5v-434q0 -119 67.5 -181.5t184.5 -62.5q119 0 187.5 62.5t68.5 181.5zM1245 934v-434q0 -254 -153.5 -387t-419.5 -133q-264 0 -417 134t-153 386v434q0 254 154 387t420 133 q264 0 416.5 -134t152.5 -386zM862 1516h-252l-245 296h329z" />
<glyph unicode="&#xd3;" horiz-adv-x="1347" d="M928 500v434q0 119 -67.5 181.5t-184.5 62.5q-119 0 -187.5 -62.5t-68.5 -181.5v-434q0 -119 67.5 -181.5t184.5 -62.5q119 0 187.5 62.5t68.5 181.5zM1245 934v-434q0 -254 -153.5 -387t-419.5 -133q-264 0 -417 134t-153 386v434q0 254 154 387t420 133 q264 0 416.5 -134t152.5 -386zM739 1516h-252l168 296h330z" />
<glyph unicode="&#xd4;" horiz-adv-x="1347" d="M928 500v434q0 119 -67.5 181.5t-184.5 62.5q-119 0 -187.5 -62.5t-68.5 -181.5v-434q0 -119 67.5 -181.5t184.5 -62.5q119 0 187.5 62.5t68.5 181.5zM1245 934v-434q0 -254 -153.5 -387t-419.5 -133q-264 0 -417 134t-153 386v434q0 254 154 387t420 133 q264 0 416.5 -134t152.5 -386zM840 1812l194 -296h-272l-92 143l-92 -143h-265l195 296h332z" />
<glyph unicode="&#xd5;" horiz-adv-x="1347" d="M928 500v434q0 119 -67.5 181.5t-184.5 62.5q-119 0 -187.5 -62.5t-68.5 -181.5v-434q0 -119 67.5 -181.5t184.5 -62.5q119 0 187.5 62.5t68.5 181.5zM1245 934v-434q0 -254 -153.5 -387t-419.5 -133q-264 0 -417 134t-153 386v434q0 254 154 387t420 133 q264 0 416.5 -134t152.5 -386zM422 1495l-160 98q74 145 137.5 195.5t132.5 50.5q55 0 116 -33.5t107 -67.5t68 -34q29 0 103 123l159 -98q-74 -145 -137 -195.5t-133 -50.5q-55 0 -115.5 33.5t-106.5 67.5t-69 34q-28 0 -102 -123z" />
<glyph unicode="&#xd6;" horiz-adv-x="1347" d="M928 500v434q0 119 -67.5 181.5t-184.5 62.5q-119 0 -187.5 -62.5t-68.5 -181.5v-434q0 -119 67.5 -181.5t184.5 -62.5q119 0 187.5 62.5t68.5 181.5zM1245 934v-434q0 -254 -153.5 -387t-419.5 -133q-264 0 -417 134t-153 386v434q0 254 154 387t420 133 q264 0 416.5 -134t152.5 -386zM315 1526v276h256v-276h-256zM776 1526v276h256v-276h-256z" />
<glyph unicode="&#xd7;" horiz-adv-x="1048" d="M522 901l287 287l182 -180l-289 -289l281 -281l-180 -180l-281 281l-286 -285l-181 180l285 285l-279 280l181 181z" />
<glyph unicode="&#xd8;" horiz-adv-x="1347" d="M1245 934v-434q0 -254 -153.5 -387t-419.5 -133q-152 0 -264 43l-136 -234l-202 119l143 248q-111 133 -111 344v434q0 254 154 387t420 133q147 0 262 -43l135 234l203 -117l-143 -248q112 -135 112 -346zM928 500v424l-375 -648q49 -20 119 -20q119 0 187.5 62.5 t68.5 181.5zM420 934v-420l371 643q-47 20 -115 21q-119 0 -187.5 -62.5t-68.5 -181.5z" />
<glyph unicode="&#xd9;" horiz-adv-x="1511" d="M20 1157v277h646v-277h-164v-657q0 -119 67.5 -181.5t184.5 -62.5q119 0 187.5 62.5t68.5 181.5v657h-164v277h645v-277h-164v-657q0 -254 -153.5 -387t-419.5 -133q-264 0 -417 134t-153 386v657h-164zM944 1516h-252l-246 296h330z" />
<glyph unicode="&#xda;" horiz-adv-x="1511" d="M20 1157v277h646v-277h-164v-657q0 -119 67.5 -181.5t184.5 -62.5q119 0 187.5 62.5t68.5 181.5v657h-164v277h645v-277h-164v-657q0 -254 -153.5 -387t-419.5 -133q-264 0 -417 134t-153 386v657h-164zM821 1516h-252l168 296h330z" />
<glyph unicode="&#xdb;" horiz-adv-x="1511" d="M20 1157v277h646v-277h-164v-657q0 -119 67.5 -181.5t184.5 -62.5q119 0 187.5 62.5t68.5 181.5v657h-164v277h645v-277h-164v-657q0 -254 -153.5 -387t-419.5 -133q-264 0 -417 134t-153 386v657h-164zM922 1812l194 -296h-272l-92 143l-93 -143h-264l195 296h332z" />
<glyph unicode="&#xdc;" horiz-adv-x="1511" d="M20 1157v277h646v-277h-164v-657q0 -119 67.5 -181.5t184.5 -62.5q119 0 187.5 62.5t68.5 181.5v657h-164v277h645v-277h-164v-657q0 -254 -153.5 -387t-419.5 -133q-264 0 -417 134t-153 386v657h-164zM397 1526v276h256v-276h-256zM858 1526v276h256v-276h-256z" />
<glyph unicode="&#xdd;" horiz-adv-x="1388" d="M1389 1434v-277h-136l-399 -651v-230h205v-276h-727v276h205v230l-400 651h-137v277h625v-277h-115l203 -354l205 354h-154v277h625zM760 1516h-252l168 296h330z" />
<glyph unicode="&#xde;" horiz-adv-x="1368" d="M563 1434v-240h273q233 0 362 -116.5t129 -360.5q0 -246 -129 -362.5t-362 -116.5h-273v-238h-481v276h164v881h-164v277h481zM563 918v-404h262q84 0 129 46t45 157q0 109 -45 155t-129 46h-262z" />
<glyph unicode="&#xdf;" horiz-adv-x="1423" d="M1341 397q0 -213 -112.5 -315t-286.5 -102q-203 0 -286 103t-83 292v31h277v-11q0 -160 90 -159q43 0 73.5 43t30.5 137q0 133 -72.5 201.5t-201.5 68.5h-59v256h18q106 0 170 45t64 123t-62.5 124t-169 46t-168 -50t-61.5 -140v-1090h-461v256h164v864q0 195 142 305.5 t384 110.5q236 0 382.5 -108.5t146.5 -286.5q0 -203 -185 -314q266 -113 266 -430z" />
<glyph unicode="&#xe0;" horiz-adv-x="1157" d="M61 313.5q0 161.5 97.5 247.5t267.5 86q174 0 270 -90v148q0 63 -39 100t-104 37q-78 0 -110.5 -27t-32.5 -88h-297q0 174 112.5 266t327.5 92q205 0 322.5 -102t117.5 -297v-430h144v-256h-369l-43 100q-96 -121 -301 -120q-168 0 -265.5 86t-97.5 247.5zM358 324 q0 -88 168 -88q170 0 170 88t-170 88q-168 0 -168 -88zM705 1188h-232l-246 328h310z" />
<glyph unicode="&#xe1;" horiz-adv-x="1157" d="M61 313.5q0 161.5 97.5 247.5t267.5 86q174 0 270 -90v148q0 63 -39 100t-104 37q-78 0 -110.5 -27t-32.5 -88h-297q0 174 112.5 266t327.5 92q205 0 322.5 -102t117.5 -297v-430h144v-256h-369l-43 100q-96 -121 -301 -120q-168 0 -265.5 86t-97.5 247.5zM358 324 q0 -88 168 -88q170 0 170 88t-170 88q-168 0 -168 -88zM623 1188h-232l168 328h309z" />
<glyph unicode="&#xe2;" horiz-adv-x="1157" d="M61 313.5q0 161.5 97.5 247.5t267.5 86q174 0 270 -90v148q0 63 -39 100t-104 37q-78 0 -110.5 -27t-32.5 -88h-297q0 174 112.5 266t327.5 92q205 0 322.5 -102t117.5 -297v-430h144v-256h-369l-43 100q-96 -121 -301 -120q-168 0 -265.5 86t-97.5 247.5zM358 324 q0 -88 168 -88q170 0 170 88t-170 88q-168 0 -168 -88zM692 1516l195 -328h-273l-71 141l-72 -141h-264l194 328h291z" />
<glyph unicode="&#xe3;" horiz-adv-x="1157" d="M61 313.5q0 161.5 97.5 247.5t267.5 86q174 0 270 -90v148q0 63 -39 100t-104 37q-78 0 -110.5 -27t-32.5 -88h-297q0 174 112.5 266t327.5 92q205 0 322.5 -102t117.5 -297v-430h144v-256h-369l-43 100q-96 -121 -301 -120q-168 0 -265.5 86t-97.5 247.5zM358 324 q0 -88 168 -88q170 0 170 88t-170 88q-168 0 -168 -88zM322 1206l-160 99q74 145 137 195t133 50q55 0 107.5 -33.5t88.5 -67.5t54 -34q29 0 102 123l160 -98q-74 -145 -137.5 -195.5t-132.5 -50.5q-55 0 -107.5 34t-88.5 67.5t-54 33.5q-28 0 -102 -123z" />
<glyph unicode="&#xe4;" horiz-adv-x="1157" d="M61 313.5q0 161.5 97.5 247.5t267.5 86q174 0 270 -90v148q0 63 -39 100t-104 37q-78 0 -110.5 -27t-32.5 -88h-297q0 174 112.5 266t327.5 92q205 0 322.5 -102t117.5 -297v-430h144v-256h-369l-43 100q-96 -121 -301 -120q-168 0 -265.5 86t-97.5 247.5zM358 324 q0 -88 168 -88q170 0 170 88t-170 88q-168 0 -168 -88zM209 1198v277h256v-277h-256zM629 1198v277h256v-277h-256z" />
<glyph unicode="&#xe5;" horiz-adv-x="1157" d="M61 313.5q0 161.5 97.5 247.5t267.5 86q174 0 270 -90v148q0 63 -39 100t-104 37q-78 0 -110.5 -27t-32.5 -88h-297q0 174 112.5 266t327.5 92q205 0 322.5 -102t117.5 -297v-430h144v-256h-369l-43 100q-96 -121 -301 -120q-168 0 -265.5 86t-97.5 247.5zM358 324 q0 -88 168 -88q170 0 170 88t-170 88q-168 0 -168 -88zM307 1339.5q0 96.5 66.5 156.5t173 60t173 -60t66.5 -156.5t-66.5 -157t-173 -60.5t-173 60.5t-66.5 157zM481 1339q0 -82 65.5 -82t65.5 82t-65.5 82t-65.5 -82z" />
<glyph unicode="&#xe6;" horiz-adv-x="1720" d="M1329 348h297q-18 -180 -135 -274t-299 -94q-233 0 -348 141q-115 -141 -377 -141q-186 0 -296 86t-110 247q0 164 97.5 249t267.5 85q168 0 270 -90v148q0 63 -39 100t-104 37q-78 0 -110.5 -27t-32.5 -88h-297q0 174 112.5 266t327.5 92q207 0 303 -127 q117 127 338 127q201 0 317.5 -108.5t116.5 -314.5v-222h-635v-57q0 -74 45 -110.5t123 -36.5q139 -1 168 112zM993 682v-27h338v27q0 147 -168 147q-80 0 -125 -36.5t-45 -110.5zM358 324q0 -88 168 -88q170 0 170 88t-170 88q-168 0 -168 -88z" />
<glyph unicode="&#xe7;" horiz-adv-x="1095" d="M1024 659h-297v5q0 166 -170 165q-168 0 -168 -147v-299q0 -74 45 -110.5t123 -36.5q170 0 170 147v23h297v-3q0 -207 -125 -315t-342 -108q-215 0 -340 108.5t-125 314.5v259q0 203 112.5 313t293 110t258.5 -120l43 100h225v-406zM420 -418l-47 131q170 4 170 51.5 t-170 51.5l47 123q164 18 264 -25t100 -153.5t-100 -153.5t-264 -25z" />
<glyph unicode="&#xe8;" d="M725 348h297q-20 -182 -141 -275t-324 -93q-213 0 -339 108.5t-126 314.5v259q0 207 125 315t342 108q215 0 340 -108.5t125 -314.5v-222h-635v-57q0 -70 43 -108.5t125 -38.5q139 -1 168 112zM389 682v-27h338v27q0 147 -168 147q-80 0 -125 -36.5t-45 -110.5zM715 1188 h-232l-245 328h309z" />
<glyph unicode="&#xe9;" d="M725 348h297q-20 -182 -141 -275t-324 -93q-213 0 -339 108.5t-126 314.5v259q0 207 125 315t342 108q215 0 340 -108.5t125 -314.5v-222h-635v-57q0 -70 43 -108.5t125 -38.5q139 -1 168 112zM389 682v-27h338v27q0 147 -168 147q-80 0 -125 -36.5t-45 -110.5zM633 1188 h-232l168 328h310z" />
<glyph unicode="&#xea;" d="M725 348h297q-20 -182 -141 -275t-324 -93q-213 0 -339 108.5t-126 314.5v259q0 207 125 315t342 108q215 0 340 -108.5t125 -314.5v-222h-635v-57q0 -70 43 -108.5t125 -38.5q139 -1 168 112zM389 682v-27h338v27q0 147 -168 147q-80 0 -125 -36.5t-45 -110.5zM702 1516 l195 -328h-272l-72 141l-72 -141h-264l195 328h290z" />
<glyph unicode="&#xeb;" d="M725 348h297q-20 -182 -141 -275t-324 -93q-213 0 -339 108.5t-126 314.5v259q0 207 125 315t342 108q215 0 340 -108.5t125 -314.5v-222h-635v-57q0 -70 43 -108.5t125 -38.5q139 -1 168 112zM389 682v-27h338v27q0 147 -168 147q-80 0 -125 -36.5t-45 -110.5zM219 1198 v277h256v-277h-256zM639 1198v277h256v-277h-256z" />
<glyph unicode="&#xec;" horiz-adv-x="747" d="M543 1065v-809h164v-256h-625v256h164v553h-164v256h461zM510 1188h-231l-246 328h309z" />
<glyph unicode="&#xed;" horiz-adv-x="747" d="M543 1065v-809h164v-256h-625v256h164v553h-164v256h461zM469 1188h-231l168 328h309z" />
<glyph unicode="&#xee;" horiz-adv-x="747" d="M543 1065v-809h164v-256h-625v256h164v553h-164v256h461zM520 1516l195 -328h-273l-71 141l-72 -141h-264l194 328h291z" />
<glyph unicode="&#xef;" horiz-adv-x="747" d="M78 1198v277h256v-277h-256zM416 1198v277h256v-277h-256zM543 1065v-809h164v-256h-625v256h164v553h-164v256h461z" />
<glyph unicode="&#xf0;" d="M182 1204l142 51q-78 37 -142 60l92 221q197 -70 340 -176l275 100l67 -182l-180 -66q248 -283 248 -698v-111q0 -207 -125 -315t-342 -108q-215 0 -340 108.5t-125 314.5v177q0 207 95.5 315.5t261.5 108.5q123 0 210 -66q-51 98 -139 182l-270 -98zM727 383v217 q0 147 -168 148q-80 0 -125 -37t-45 -111v-217q0 -74 45 -110.5t123 -36.5q170 0 170 147z" />
<glyph unicode="&#xf1;" horiz-adv-x="1361" d="M1341 0h-460v682q0 147 -168 147q-80 0 -125 -36.5t-45 -110.5v-426h164v-256h-625v256h164v553h-164v256h389l43 -102q100 123 289 122q174 0 274.5 -108.5t100.5 -314.5v-406h163v-256zM481 1206l-159 99q74 145 137 195t133 50q55 0 107.5 -33.5t88 -67.5t54.5 -34 q29 0 102 123l160 -98q-74 -145 -137.5 -195.5t-132.5 -50.5q-55 0 -107.5 34t-88.5 67.5t-54 33.5q-29 0 -103 -123z" />
<glyph unicode="&#xf2;" d="M1024 662v-259q0 -207 -125 -315t-342 -108q-215 0 -340 108.5t-125 314.5v259q0 207 125 315t342 108q215 0 340 -108t125 -315zM727 383v299q0 147 -168 147q-80 0 -125 -36.5t-45 -110.5v-299q0 -74 45 -110.5t123 -36.5q170 0 170 147zM715 1188h-232l-245 328h309z " />
<glyph unicode="&#xf3;" d="M1024 662v-259q0 -207 -125 -315t-342 -108q-215 0 -340 108.5t-125 314.5v259q0 207 125 315t342 108q215 0 340 -108t125 -315zM727 383v299q0 147 -168 147q-80 0 -125 -36.5t-45 -110.5v-299q0 -74 45 -110.5t123 -36.5q170 0 170 147zM633 1188h-232l168 328h310z " />
<glyph unicode="&#xf4;" d="M1024 662v-259q0 -207 -125 -315t-342 -108q-215 0 -340 108.5t-125 314.5v259q0 207 125 315t342 108q215 0 340 -108t125 -315zM727 383v299q0 147 -168 147q-80 0 -125 -36.5t-45 -110.5v-299q0 -74 45 -110.5t123 -36.5q170 0 170 147zM702 1516l195 -328h-272 l-72 141l-72 -141h-264l195 328h290z" />
<glyph unicode="&#xf5;" d="M1024 662v-259q0 -207 -125 -315t-342 -108q-215 0 -340 108.5t-125 314.5v259q0 207 125 315t342 108q215 0 340 -108t125 -315zM727 383v299q0 147 -168 147q-80 0 -125 -36.5t-45 -110.5v-299q0 -74 45 -110.5t123 -36.5q170 0 170 147zM328 1206l-160 99 q74 145 137.5 195t132.5 50q55 0 107.5 -33.5t88.5 -67.5t54 -34q29 0 103 123l159 -98q-74 -145 -137 -195.5t-133 -50.5q-55 0 -107.5 34t-88 67.5t-54.5 33.5q-28 0 -102 -123z" />
<glyph unicode="&#xf6;" d="M1024 662v-259q0 -207 -125 -315t-342 -108q-215 0 -340 108.5t-125 314.5v259q0 207 125 315t342 108q215 0 340 -108t125 -315zM727 383v299q0 147 -168 147q-80 0 -125 -36.5t-45 -110.5v-299q0 -74 45 -110.5t123 -36.5q170 0 170 147zM219 1198v277h256v-277h-256z M639 1198v277h256v-277h-256z" />
<glyph unicode="&#xf7;" horiz-adv-x="1048" d="M61 846h926v-256h-926v256zM356 84v338h338v-338h-338zM356 1014v338h338v-338h-338z" />
<glyph unicode="&#xf8;" d="M1014 1122l-96 -166q106 -111 106 -294v-259q0 -207 -125 -315t-342 -108q-106 0 -188 24l-93 -158l-170 97l93 161q-106 113 -107 299v259q0 207 125 315t342 108q100 0 191 -26l94 162zM389 682v-250l225 391q-25 6 -55 6q-80 0 -125 -36.5t-45 -110.5zM727 383v242 l-223 -385q33 -4 53 -4q170 0 170 147z" />
<glyph unicode="&#xf9;" horiz-adv-x="1320" d="M20 1065h461v-682q0 -147 168 -147q80 0 125 36.5t45 110.5v426h-164v256h461v-809h164v-256h-389l-45 102q-98 -123 -287 -122q-174 0 -274.5 108.5t-100.5 314.5v406h-164v256zM889 1188h-232l-245 328h309z" />
<glyph unicode="&#xfa;" horiz-adv-x="1320" d="M20 1065h461v-682q0 -147 168 -147q80 0 125 36.5t45 110.5v426h-164v256h461v-809h164v-256h-389l-45 102q-98 -123 -287 -122q-174 0 -274.5 108.5t-100.5 314.5v406h-164v256zM643 1188h-231l168 328h309z" />
<glyph unicode="&#xfb;" horiz-adv-x="1320" d="M20 1065h461v-682q0 -147 168 -147q80 0 125 36.5t45 110.5v426h-164v256h461v-809h164v-256h-389l-45 102q-98 -123 -287 -122q-174 0 -274.5 108.5t-100.5 314.5v406h-164v256zM795 1516l194 -328h-272l-72 141l-72 -141h-264l195 328h291z" />
<glyph unicode="&#xfc;" horiz-adv-x="1320" d="M20 1065h461v-682q0 -147 168 -147q80 0 125 36.5t45 110.5v426h-164v256h461v-809h164v-256h-389l-45 102q-98 -123 -287 -122q-174 0 -274.5 108.5t-100.5 314.5v406h-164v256zM311 1198v277h256v-277h-256zM731 1198v277h256v-277h-256z" />
<glyph unicode="&#xfd;" horiz-adv-x="1304" d="M297 -410v256h217l55 154h-104l-305 809h-140v256h584v-256h-133l193 -543l192 543h-135v256h563v-256h-137l-365 -963h119v-256h-604zM727 1188h-231l168 328h309z" />
<glyph unicode="&#xfe;" horiz-adv-x="1269" d="M543 1516v-523q96 92 260 92q174 0 274.5 -108.5t100.5 -314.5v-259q0 -207 -100.5 -315t-276.5 -108q-162 0 -258 92v-226h164v-256h-625v256h164v1414h-164v256h461zM881 383v299q0 147 -168 147q-80 0 -125 -36.5t-45 -110.5v-299q0 -74 45 -110.5t123 -36.5 q170 0 170 147z" />
<glyph unicode="&#xff;" horiz-adv-x="1304" d="M297 -410v256h217l55 154h-104l-305 809h-140v256h584v-256h-133l193 -543l192 543h-135v256h563v-256h-137l-365 -963h119v-256h-604zM313 1198v277h256v-277h-256zM733 1198v277h256v-277h-256z" />
<glyph unicode="&#x152;" horiz-adv-x="2050" d="M928 0v74q-119 -94 -293 -94q-231 0 -382 136t-151 384v434q0 248 150.5 384t386.5 136q166 0 289 -94v74h999v-461h-317v184h-365v-301h457v-276h-457v-304h365v185h317v-461h-999zM928 500v434q0 119 -67.5 181.5t-184.5 62.5q-119 0 -187.5 -62.5t-68.5 -181.5v-434 q0 -119 67.5 -181.5t184.5 -62.5q119 0 187.5 62.5t68.5 181.5z" />
<glyph unicode="&#x153;" horiz-adv-x="1751" d="M1360 348h297q-18 -180 -137 -274t-297 -94q-236 0 -349 141q-113 -141 -348 -141q-201 0 -317.5 108.5t-116.5 314.5v259q0 207 117 315t319 108q233 0 346 -141q117 141 351 141q201 0 317.5 -108.5t116.5 -314.5v-222h-635v-57q0 -74 45 -110.5t123 -36.5 q139 -1 168 112zM727 383v299q0 147 -168 147q-80 0 -125 -36.5t-45 -110.5v-299q0 -74 45 -110.5t123 -36.5q170 0 170 147zM1024 682v-27h338v27q0 147 -168 147q-80 0 -125 -36.5t-45 -110.5z" />
<glyph unicode="&#x178;" horiz-adv-x="1388" d="M1389 1434v-277h-136l-399 -651v-230h205v-276h-727v276h205v230l-400 651h-137v277h625v-277h-115l203 -354l205 354h-154v277h625zM336 1526v276h256v-276h-256zM797 1526v276h256v-276h-256z" />
<glyph unicode="&#x2c6;" horiz-adv-x="761" d="M526 1516l195 -328h-272l-72 141l-72 -141h-264l195 328h290z" />
<glyph unicode="&#x2dc;" horiz-adv-x="864" d="M201 1206l-160 99q74 145 137.5 195t132.5 50q55 0 107.5 -33.5t88.5 -67.5t54 -34q29 0 103 123l159 -98q-74 -145 -137 -195.5t-133 -50.5q-55 0 -107.5 34t-88 67.5t-54.5 33.5q-28 0 -102 -123z" />
<glyph unicode="&#x2000;" horiz-adv-x="946" />
<glyph unicode="&#x2001;" horiz-adv-x="1894" />
<glyph unicode="&#x2002;" horiz-adv-x="946" />
<glyph unicode="&#x2003;" horiz-adv-x="1894" />
<glyph unicode="&#x2004;" horiz-adv-x="630" />
<glyph unicode="&#x2005;" horiz-adv-x="473" />
<glyph unicode="&#x2006;" horiz-adv-x="315" />
<glyph unicode="&#x2007;" horiz-adv-x="315" />
<glyph unicode="&#x2008;" horiz-adv-x="235" />
<glyph unicode="&#x2009;" horiz-adv-x="378" />
<glyph unicode="&#x200a;" horiz-adv-x="104" />
<glyph unicode="&#x2010;" horiz-adv-x="600" d="M61 406v256h478v-256h-478z" />
<glyph unicode="&#x2011;" horiz-adv-x="600" d="M61 406v256h478v-256h-478z" />
<glyph unicode="&#x2012;" horiz-adv-x="600" d="M61 406v256h478v-256h-478z" />
<glyph unicode="&#x2013;" horiz-adv-x="1044" d="M10 406v256h1024v-256h-1024z" />
<glyph unicode="&#x2014;" horiz-adv-x="2068" d="M10 406v256h2048v-256h-2048z" />
<glyph unicode="&#x2018;" horiz-adv-x="583" d="M461 1669v-573h-338l123 573h215z" />
<glyph unicode="&#x2019;" horiz-adv-x="583" d="M123 1096v573h338l-123 -573h-215z" />
<glyph unicode="&#x201a;" horiz-adv-x="583" d="M123 -236v574h338l-123 -574h-215z" />
<glyph unicode="&#x201c;" horiz-adv-x="1003" d="M881 1669v-573h-338l123 573h215zM461 1669v-573h-338l123 573h215z" />
<glyph unicode="&#x201d;" horiz-adv-x="1003" d="M123 1096v573h338l-123 -573h-215zM543 1096v573h338l-123 -573h-215z" />
<glyph unicode="&#x201e;" horiz-adv-x="1003" d="M123 -236v574h338l-123 -574h-215zM543 -236v574h338l-123 -574h-215z" />
<glyph unicode="&#x2022;" horiz-adv-x="761" d="M61 716.5q0 141.5 89.5 230.5t230.5 89t230 -89t89 -230.5t-89 -230.5t-230 -89t-230.5 89t-89.5 230.5z" />
<glyph unicode="&#x2026;" horiz-adv-x="2119" d="M123 0v338h338v-338h-338zM891 0v338h338v-338h-338zM1659 0v338h338v-338h-338z" />
<glyph unicode="&#x202f;" horiz-adv-x="378" />
<glyph unicode="&#x2039;" horiz-adv-x="577" d="M516 94l-475 303v271l475 303v-297l-231 -142l231 -141v-297z" />
<glyph unicode="&#x203a;" horiz-adv-x="577" d="M41 971l475 -303v-271l-475 -303v297l231 141l-231 142v297z" />
<glyph unicode="&#x205f;" horiz-adv-x="473" />
<glyph unicode="&#x20ac;" horiz-adv-x="1388" d="M989 922v24q-4 113 -71.5 172.5t-180.5 59.5q-119 0 -187.5 -62.5t-68.5 -181.5v-98h387v-236h-387v-100q0 -119 67.5 -181.5t184.5 -62.5q119 0 187.5 62.5t68.5 181.5v12h318v-12q0 -254 -154 -387t-420 -133q-264 0 -416.5 134t-152.5 386v100h-123v236h123v98 q0 240 141 380t371 140q219 0 338 -131l47 111h246v-512h-318z" />
<glyph unicode="&#x2122;" horiz-adv-x="1284" d="M41 1255v179h491v-179h-145v-358h-201v358h-145zM993 897v215l-104 -154l-105 154v-215h-190v537h184l111 -162l108 162h185v-537h-189z" />
<glyph unicode="&#xe000;" horiz-adv-x="1065" d="M0 1065h1065v-1065h-1065v1065z" />
<glyph unicode="&#xfb01;" horiz-adv-x="1423" d="M778 0v256h144v553h-400v-553h144v-256h-605v256h164v553h-184v256h184v72q0 92 15.5 158.5t53.5 123t101.5 81t160.5 34.5t232 -14v-244q-164 8 -215 -12.5t-51 -116.5v-82h697v-809h163v-256h-604zM922 1219v297h297v-297h-297z" />
<glyph unicode="&#xfb02;" horiz-adv-x="1423" d="M778 0v256h144v1030q-98 10 -160 10q-125 0 -182.5 -34.5t-57.5 -114.5v-82h266v-256h-266v-553h144v-256h-605v256h164v553h-184v256h184v72q0 94 21.5 163.5t79 130t169 91t277.5 30.5q178 0 447 -43v-1253h163v-256h-604z" />
<glyph unicode="&#xfb03;" horiz-adv-x="2324" d="M1823 1219v297h297v-297h-297zM2120 1065v-809h164v-256h-625v256h164v553h-164v256h461zM849 0v256h164v553h-184v256h184v72q0 92 15.5 158.5t53.5 123t101.5 81t160.5 34.5q29 3 61 3q77 0 171 -17v-244q-47 2 -84 2q-94 0 -131 -14q-51 -20 -51 -117v-82h266v-256 h-266v-553h164v-256h-625zM61 0v256h164v553h-184v256h184v72q0 92 15.5 158.5t53.5 123t101.5 81t160.5 34.5q29 3 61 3q77 0 171 -17v-244q-47 2 -84 2q-94 0 -131 -14q-51 -20 -51 -117v-82h266v-256h-266v-553h164v-256h-625z" />
<glyph unicode="&#xfb04;" horiz-adv-x="2324" d="M2120 1516v-1260h164v-256h-625v256h164v1004h-164v256h461zM849 0v256h164v553h-184v256h184v72q0 92 15.5 158.5t53.5 123t101.5 81t160.5 34.5q29 3 61 3q77 0 171 -17v-244q-47 2 -84 2q-94 0 -131 -14q-51 -20 -51 -117v-82h266v-256h-266v-553h164v-256h-625zM61 0 v256h164v553h-184v256h184v72q0 92 15.5 158.5t53.5 123t101.5 81t160.5 34.5q29 3 61 3q77 0 171 -17v-244q-47 2 -84 2q-94 0 -131 -14q-51 -20 -51 -117v-82h266v-256h-266v-553h164v-256h-625z" />
<glyph horiz-adv-x="0" />
</font>
</defs>
</svg>
