<?xml version="1.0" standalone="no"?>
<!DOCTYPE svg PUBLIC "-//W3C//DTD SVG 1.1//EN" "http://www.w3.org/Graphics/SVG/1.1/DTD/svg11.dtd" >
<svg xmlns="http://www.w3.org/2000/svg">
<metadata>
This is a custom SVG webfont generated by Font Squirrel.
Copyright   : Copyright c 2009 by Tomas Brousil All rights reserved
Designer    : Tomas Brousil
Foundry     : Tomas Brousil
</metadata>
<defs>
<font id="webfontga3LpUaS" horiz-adv-x="1097" >
<font-face units-per-em="2048" ascent="1638" descent="-410" />
<missing-glyph horiz-adv-x="614" />
<glyph unicode=" "  horiz-adv-x="614" />
<glyph unicode="&#x09;" horiz-adv-x="614" />
<glyph unicode="&#xa0;" horiz-adv-x="614" />
<glyph unicode="!" horiz-adv-x="528" d="M344 1434v-1035h-160v1035h160zM344 231v-231h-160v231h160z" />
<glyph unicode="&#x22;" horiz-adv-x="747" d="M164 866l-21 568h181l-21 -568h-139zM446 866l-20 568h178l-20 -568h-138z" />
<glyph unicode="#" horiz-adv-x="1497" d="M700 0l129 408h-360l-129 -408h-141l131 408h-281v129h322l114 362h-272v127h313l131 408h142l-131 -408h360l131 408h139l-131 -408h281v-127h-322l-114 -362h272v-129h-313l-131 -408h-140zM627 899l-117 -362h360l117 362h-360z" />
<glyph unicode="$" horiz-adv-x="1304" d="M571 -246v236q-186 31 -284 143l-21 -133h-133v436h170q2 -147 99.5 -228t265.5 -81q156 0 242.5 64.5t86.5 187.5q0 129 -85 180t-275 86q-248 43 -367.5 135t-119.5 289q0 178 111.5 276.5t309.5 106.5v227h160v-235q176 -31 273 -141l20 131h133v-435h-170 q-2 150 -93 229t-255 79q-154 0 -234.5 -61.5t-80.5 -176.5q0 -88 46 -142.5t113.5 -79t184.5 -44.5q125 -23 210 -50.5t155.5 -75.5t104 -123t33.5 -179q0 -186 -117.5 -286.5t-322.5 -108.5v-226h-160z" />
<glyph unicode="%" horiz-adv-x="1687" d="M279 0l987 1434h143l-987 -1434h-143zM680 1198v-280q0 -119 -71.5 -183.5t-196.5 -64.5t-197 64.5t-72 183.5v280q0 119 72 182.5t197 63.5t196.5 -63.5t71.5 -182.5zM555 918v280q0 66 -38 101.5t-105 35.5q-66 0 -104 -35.5t-38 -101.5v-280q0 -66 38 -102t104 -36 q68 0 105.5 36t37.5 102zM1544 518v-280q0 -119 -71.5 -183.5t-196.5 -64.5t-196.5 64.5t-71.5 183.5v280q0 119 71.5 182.5t196.5 63.5t196.5 -63.5t71.5 -182.5zM1417 238v280q0 66 -38 101.5t-103 35.5q-68 0 -105.5 -35.5t-37.5 -101.5v-280q0 -66 37.5 -102t105.5 -36 q66 0 103.5 36t37.5 102z" />
<glyph unicode="&#x26;" horiz-adv-x="1331" d="M936 1024v35q0 115 -82 181.5t-223 66.5q-145 0 -224 -70t-79 -193q0 -113 75.5 -182t212.5 -69h715v-148h-225v-645h-127l-27 152q-125 -172 -387 -172q-199 0 -315.5 105t-116.5 275q0 260 246 361q-225 88 -225 350q0 178 120.5 280.5t319.5 102.5q242 0 360 -123 l19 103h133v-410h-170zM606 127q147 0 238.5 78t91.5 198v242h-324q-139 0 -222 -71.5t-83 -194.5q0 -121 78 -186.5t221 -65.5z" />
<glyph unicode="'" horiz-adv-x="466" d="M164 866l-21 568h181l-21 -568h-139z" />
<glyph unicode="(" horiz-adv-x="598" d="M598 -229h-162q-324 391 -323 944q0 557 323 948h162q-326 -408 -326 -948.5t326 -943.5z" />
<glyph unicode=")" horiz-adv-x="598" d="M0 1663h162q324 -389 323 -942q0 -555 -323 -950h-162q326 408 326 950q0 539 -326 942z" />
<glyph unicode="*" horiz-adv-x="942" d="M61 1206l37 113l328 -123l-14 354h116l-12 -352l328 121l37 -111l-336 -96l217 -274l-94 -68l-197 293l-197 -293l-94 68l215 274z" />
<glyph unicode="+" horiz-adv-x="1048" d="M451 786v406h145v-406h391v-137h-391v-401h-145v401h-390v137h390z" />
<glyph unicode="," horiz-adv-x="466" d="M133 -236l21 488h180l-82 -488h-119z" />
<glyph unicode="-" horiz-adv-x="530" d="M61 455v137h408v-137h-408z" />
<glyph unicode="." horiz-adv-x="466" d="M143 0v252h181v-252h-181z" />
<glyph unicode="/" horiz-adv-x="636" d="M-66 -229l627 1892h141l-626 -1892h-142z" />
<glyph unicode="0" horiz-adv-x="1273" d="M961 436v561q0 147 -85 228.5t-237 81.5q-154 0 -240 -81t-86 -229v-561q0 -147 85 -228t237 -81q154 0 240 81t86 228zM1130 997v-561q0 -219 -131 -337.5t-364 -118.5q-229 0 -360.5 118.5t-131.5 337.5v561q0 219 131.5 338t364.5 119q229 0 360 -119t131 -338z" />
<glyph unicode="1" horiz-adv-x="948" d="M102 0v147h318v1115l-318 -228v172l318 228h170v-1287h297v-147h-785z" />
<glyph unicode="2" horiz-adv-x="1232" d="M1085 1063q0 -195 -190 -385l-530 -531h745v-147h-967v147l635 629q137 133 137 283q0 119 -80.5 183.5t-216.5 64.5q-141 0 -223 -73t-82 -216v-66h-170v482h133l21 -129q125 150 356 149q190 0 311 -103.5t121 -287.5z" />
<glyph unicode="3" horiz-adv-x="1232" d="M1079 1061q0 -250 -227 -342q238 -84 238 -344q0 -184 -125 -289.5t-352.5 -105.5t-353.5 104t-126 283v55h170v-39q0 -121 81 -188.5t228.5 -67.5t225 70.5t77.5 193.5q0 121 -79.5 187.5t-219.5 66.5h-114v148h114q137 0 213 68.5t76 182.5q0 123 -76.5 193t-220.5 70 q-145 0 -225 -74t-80 -195v-24h-170v420h133l21 -125q133 145 354 145q195 2 316.5 -105.5t121.5 -287.5z" />
<glyph unicode="4" horiz-adv-x="1150" d="M449 0v147h194v248h-582v148l459 891h178l-465 -891h410v321h168v-321h289v-148h-289v-248h195v-147h-557z" />
<glyph unicode="5" horiz-adv-x="1232" d="M143 393v4h170v-12q0 -123 81 -190.5t222 -67.5q145 0 225.5 82t80.5 248t-79 248.5t-225 82.5q-221 0 -292 -163h-164l63 809h793v-148h-660l-43 -483q129 123 328 123t323 -119t124 -352q0 -229 -125 -352t-349 -123q-221 0 -347 108t-126 305z" />
<glyph unicode="6" horiz-adv-x="1243" d="M932 1030v21q0 119 -85 187.5t-224 68.5q-145 0 -227.5 -70t-82.5 -193v-319q121 139 342 139q207 0 326 -117.5t119 -324.5q0 -205 -128 -323.5t-349 -118.5q-223 0 -351.5 118.5t-128.5 323.5v614q0 193 124 305.5t319 112.5q236 0 360 -147l21 127h133v-404h-168z M623 727q-145 0 -227.5 -80t-82.5 -221q0 -139 82 -219t228 -80q143 0 226 80t83 219q0 143 -81 222t-228 79z" />
<glyph unicode="7" horiz-adv-x="1110" d="M244 0l618 1286h-620v-262h-170v410h966v-127l-608 -1307h-186z" />
<glyph unicode="8" horiz-adv-x="1243" d="M1090 1067q0 -236 -205 -334q115 -45 175 -136t60 -218q0 -184 -130 -293t-367 -109q-240 0 -370 108t-130 294q0 258 235 354q-205 96 -204 334q0 178 123.5 282.5t343.5 104.5q223 0 346 -103.5t123 -283.5zM952 393q0 125 -87 195.5t-244 70.5q-156 0 -242 -70.5 t-86 -195.5t86 -195.5t243.5 -70.5t243.5 71.5t86 194.5zM922 1052.5q0 118.5 -79 186.5t-222 68q-139 0 -218 -69t-79 -185q0 -119 78.5 -186.5t220 -67.5t220.5 67.5t79 186z" />
<glyph unicode="9" horiz-adv-x="1243" d="M623 127q145 0 227 71.5t82 198.5v314q-121 -139 -342 -140q-207 0 -327 118t-120 325q0 203 128 321.5t352 118.5q221 0 349 -118.5t128 -321.5v-617q0 -195 -124 -306t-353 -111q-227 0 -353.5 105t-126.5 286v32h170v-16q0 -123 81.5 -191.5t228.5 -68.5zM623 1307 q-145 0 -227.5 -80t-82.5 -219q0 -143 80 -221t230 -78q143 0 226 79.5t83 219t-83 219.5t-226 80z" />
<glyph unicode=":" horiz-adv-x="466" d="M143 0v252h181v-252h-181zM143 815v250h181v-250h-181z" />
<glyph unicode=";" horiz-adv-x="466" d="M143 815v250h181v-250h-181zM133 -236l21 488h180l-82 -488h-119z" />
<glyph unicode="&#x3c;" horiz-adv-x="1048" d="M987 287l-926 362v139l926 363v-152l-754 -280l754 -279v-153z" />
<glyph unicode="=" horiz-adv-x="1048" d="M61 1042h926v-137h-926v137zM61 530h926v-137h-926v137z" />
<glyph unicode="&#x3e;" horiz-adv-x="1048" d="M61 1151l926 -363v-139l-926 -362v153l754 279l-754 280v152z" />
<glyph unicode="?" horiz-adv-x="1284" d="M561 786h80q160 0 250 72t90 195t-90 193.5t-250 70.5q-158 0 -248 -70.5t-90 -193.5v-49h-160v49q0 186 133.5 293.5t364.5 107.5t365.5 -107.5t134.5 -293.5q0 -170 -111.5 -275.5t-308.5 -122.5v-256h-160v387zM721 231v-231h-160v231h160z" />
<glyph unicode="@" horiz-adv-x="2127" d="M610 393l49 283q33 190 149 289.5t296 99.5q231 0 315 -150l45 129h123l-131 -751q-14 -74 17.5 -116t95.5 -42q131 0 220 188.5t89 397.5q0 276 -173 438t-474 162q-270 0 -493.5 -123t-355.5 -354.5t-132 -526.5q0 -279 172 -440.5t477 -161.5q244 0 457 109l51 -129 q-240 -115 -508 -115q-373 0 -585 196.5t-212 538.5q0 334 153 596.5t409 402.5t567 140q371 0 582.5 -196.5t211.5 -536.5q0 -295 -134 -508t-337 -213q-197 0 -245 156q-129 -176 -375 -176q-182 0 -269.5 111.5t-54.5 301.5zM819 686l-53 -303q-20 -119 39 -192.5 t176 -73.5q127 0 219 74.5t115 201.5l47 271q20 119 -49.5 191.5t-196.5 72.5q-252 0 -297 -242z" />
<glyph unicode="A" horiz-adv-x="1574" d="M20 0v147h179l489 1287h207l489 -1287h170v-147h-536v147h186l-114 293h-613l-112 -293h194v-147h-539zM784 1264l-258 -676h516z" />
<glyph unicode="B" horiz-adv-x="1355" d="M297 147v1139h-195v148h740q193 0 297 -96.5t104 -280.5q0 -236 -180 -330q211 -80 211 -348q0 -186 -104.5 -282.5t-297.5 -96.5h-770v147h195zM467 645v-498h377q256 0 256 248q0 250 -254 250h-379zM467 1286v-493h346q256 0 256 247q0 246 -254 246h-348z" />
<glyph unicode="C" horiz-adv-x="1325" d="M1042 973v8q0 154 -97 240t-269 86q-180 0 -281.5 -96.5t-101.5 -270.5v-446q0 -174 101.5 -270.5t279.5 -96.5q172 0 270 87t98 241v6h170v-6q0 -225 -143 -350t-395 -125q-258 0 -404.5 134t-146.5 380v446q0 240 142.5 377t389.5 137q281 0 404 -160l20 140h133v-461 h-170z" />
<glyph unicode="D" horiz-adv-x="1437" d="M1135 508v420q0 172 -101.5 265t-281.5 93h-285v-1139h281q182 0 284.5 94.5t102.5 266.5zM102 1434h650q260 0 406.5 -132.5t146.5 -373.5v-420q0 -244 -147.5 -376t-409.5 -132h-646v147h195v1139h-195v148z" />
<glyph unicode="E" horiz-adv-x="1304" d="M297 147v1139h-195v148h1121v-410h-170v262h-586v-493h530v-148h-530v-498h586v263h170v-410h-1121v147h195z" />
<glyph unicode="F" horiz-adv-x="1304" d="M713 147v-147h-611v147h195v1139h-195v148h1100v-410h-170v262h-565v-520h510v-148h-510v-471h246z" />
<glyph unicode="G" horiz-adv-x="1339" d="M1042 993v8q0 145 -97 225.5t-269 80.5q-180 0 -281.5 -96.5t-101.5 -270.5v-446q0 -174 101.5 -270.5t279.5 -96.5q172 0 270 87t98 241v127h-450v147h620v-729h-127l-20 150q-133 -170 -420 -170q-248 0 -385 133t-137 381v446q0 240 142.5 377t389.5 137 q285 0 404 -154l20 134h133v-441h-170z" />
<glyph unicode="H" horiz-adv-x="1662" d="M1366 1286v-1139h195v-147h-560v147h195v498h-729v-498h195v-147h-560v147h195v1139h-195v148h560v-148h-195v-493h729v493h-195v148h560v-148h-195z" />
<glyph unicode="I" horiz-adv-x="763" d="M467 1286v-1139h195v-147h-560v147h195v1139h-195v148h560v-148h-195z" />
<glyph unicode="J" horiz-adv-x="1253" d="M543 127q145 0 225 77t80 214v868h-236v148h600v-148h-194v-868q0 -211 -126 -324.5t-349 -113.5q-221 0 -346 114.5t-125 323.5v49h170v-49q0 -137 80 -214t221 -77z" />
<glyph unicode="K" horiz-adv-x="1603" d="M905 1286v148h578v-148h-168l-506 -473l537 -666h176v-147h-580v147h182l-442 558l-215 -203v-355h195v-147h-560v147h195v1139h-195v148h560v-148h-195v-596l625 596h-187z" />
<glyph unicode="L" horiz-adv-x="1284" d="M713 1434v-148h-246v-1139h586v304h170v-451h-1121v147h195v1139h-195v148h611z" />
<glyph unicode="M" horiz-adv-x="1826" d="M467 1100v-953h195v-147h-560v147h195v1139h-195v148h359l452 -848l453 848h358v-148h-194v-1139h194v-147h-557v147h195v953l-449 -838z" />
<glyph unicode="N" horiz-adv-x="1601" d="M467 1124v-977h195v-147h-560v147h195v1139h-195v148h355l739 -1123v975h-195v148h560v-148h-195v-1286h-160z" />
<glyph unicode="O" horiz-adv-x="1355" d="M1063 494v446q0 174 -101.5 270.5t-281.5 96.5q-184 0 -285.5 -96.5t-101.5 -270.5v-446q0 -174 101.5 -270.5t281.5 -96.5q184 0 285.5 96.5t101.5 270.5zM1233 940v-446q0 -246 -147.5 -380t-409.5 -134q-258 0 -405.5 134t-147.5 380v446q0 246 147.5 380t409.5 134 q260 0 406.5 -134t146.5 -380z" />
<glyph unicode="P" horiz-adv-x="1355" d="M467 543v-396h246v-147h-611v147h195v1139h-195v148h734q217 0 337.5 -111t120.5 -334q0 -225 -120.5 -335.5t-337.5 -110.5h-369zM467 1286v-596h364q289 0 289 299q0 152 -76.5 224.5t-212.5 72.5h-364z" />
<glyph unicode="Q" horiz-adv-x="1335" d="M1069 -410l-389 390h-4q-258 0 -405.5 134t-147.5 380v446q0 246 147.5 380t409.5 134q260 0 406.5 -134t146.5 -380v-446q0 -190 -91 -315.5t-257 -172.5l305 -297zM1063 494v446q0 174 -101.5 270.5t-281.5 96.5q-184 0 -285.5 -96.5t-101.5 -270.5v-446 q0 -174 101.5 -270.5t281.5 -96.5q184 0 285.5 96.5t101.5 270.5z" />
<glyph unicode="R" horiz-adv-x="1427" d="M102 1286v148h734q215 0 336.5 -106.5t121.5 -315.5q0 -178 -90 -283.5t-252 -132.5l260 -449h205v-147h-315l-340 588h-295v-441h215v-147h-580v147h195v1139h-195zM467 1286v-551h364q135 0 212 69.5t77 207t-76.5 206t-212.5 68.5h-364z" />
<glyph unicode="S" horiz-adv-x="1284" d="M293 436q2 -147 99 -228t265 -81q156 0 243 64.5t87 187.5q0 129 -85 180t-275 86q-248 43 -368 135t-120 289q0 186 121 285.5t336 99.5q268 0 397 -151l21 131h133v-435h-170q-2 150 -93 229t-255 79q-154 0 -235 -61.5t-81 -176.5q0 -88 46.5 -142.5t114 -79 t183.5 -44.5q125 -23 210 -50.5t156 -75.5t104.5 -123t33.5 -179q0 -193 -127 -294t-344 -101q-276 0 -414 153l-20 -133h-133v436h170z" />
<glyph unicode="T" horiz-adv-x="1361" d="M360 0v147h236v1139h-365v-262h-170v410h1239v-410h-170v262h-364v-1139h235v-147h-641z" />
<glyph unicode="U" horiz-adv-x="1540" d="M41 1286v148h559v-148h-194v-811q0 -166 96 -257t266 -91q172 0 269.5 91t97.5 257v811h-195v148h559v-148h-194v-811q0 -238 -142.5 -366.5t-394.5 -128.5q-248 0 -390 129t-142 366v811h-195z" />
<glyph unicode="V" horiz-adv-x="1564" d="M786 186l416 1100h-194v148h536v-148h-178l-487 -1286h-199l-487 1286h-173v148h539v-148h-186z" />
<glyph unicode="W" horiz-adv-x="2091" d="M1534 1286v148h537v-148h-181l-348 -1286h-192l-308 1126l-307 -1126h-192l-350 1286h-173v148h539v-148h-199l285 -1069l318 1217h163l318 -1217l285 1069h-195z" />
<glyph unicode="X" horiz-adv-x="1525" d="M1454 1434v-148h-174l-420 -565l420 -574h174v-147h-549v147h174l-321 461l-322 -461h185v-147h-549v147h174l418 568l-418 571h-174v148h549v-148h-175l320 -459l324 459h-185v148h549z" />
<glyph unicode="Y" horiz-adv-x="1443" d="M1444 1434v-148h-168l-469 -737v-402h235v-147h-639v147h236v402l-469 737h-170v148h549v-148h-180l362 -577l365 577h-199v148h547z" />
<glyph unicode="Z" horiz-adv-x="1181" d="M72 147l837 1139h-667v-262h-170v410h1038v-148l-838 -1139h668v263h170v-410h-1038v147z" />
<glyph unicode="[" horiz-adv-x="608" d="M567 1663v-147h-254v-1598h254v-147h-424v1892h424z" />
<glyph unicode="\" horiz-adv-x="636" d="M76 1663l626 -1892h-139l-629 1892h142z" />
<glyph unicode="]" horiz-adv-x="608" d="M41 -229v147h256v1598h-256v147h424v-1892h-424z" />
<glyph unicode="^" horiz-adv-x="1042" d="M438 1729h166l377 -963h-168l-295 795l-297 -795h-160z" />
<glyph unicode="_" horiz-adv-x="1044" d="M1034 -137h-1024v117h1024v-117z" />
<glyph unicode="`" horiz-adv-x="454" d="M414 1188h-127l-246 328h166z" />
<glyph unicode="a" horiz-adv-x="1169" d="M82 295q0 158 102.5 236.5t284.5 78.5q213 0 317 -104v201q0 111 -66.5 169t-182.5 58q-123 0 -183.5 -48t-60.5 -155h-160q0 334 404 334q190 0 298.5 -93t108.5 -276v-559h184v-137h-307l-18 111q-102 -131 -336 -131q-180 0 -282.5 78.5t-102.5 236.5zM242 301 q0 -184 266 -184q127 0 202.5 48t75.5 136t-75.5 135t-202.5 47q-266 0 -266 -182z" />
<glyph unicode="b" horiz-adv-x="1196" d="M1077 674v-301q0 -188 -104.5 -290.5t-286.5 -102.5q-221 0 -328 143l-20 -123h-123v1378h-195v138h355v-582q106 131 311 131q182 0 286.5 -101.5t104.5 -289.5zM920 362v322q0 117 -71 180.5t-196 63.5q-129 0 -203.5 -66.5t-74.5 -187.5v-301q0 -121 74.5 -188.5 t201.5 -67.5q125 0 197 64t72 181z" />
<glyph unicode="c" horiz-adv-x="1077" d="M981 692h-160v2q0 113 -70.5 173.5t-197.5 60.5q-131 0 -204 -64.5t-73 -183.5v-315q0 -117 74 -182.5t203 -65.5q125 0 196.5 60.5t71.5 164.5v12h160v-2q0 -176 -114.5 -274t-313.5 -98q-203 0 -318.5 103t-115.5 292v295q0 190 110.5 292.5t305.5 102.5 q215 0 303 -121l20 100h123v-352z" />
<glyph unicode="d" horiz-adv-x="1216" d="M858 0l-22 123q-102 -143 -326 -143q-182 0 -286.5 102t-104.5 291v301q0 188 104.5 289.5t286.5 101.5q205 0 311 -125v438h-194v138h354v-1379h195v-137h-318zM276 684v-322q0 -117 72 -181t197 -64q127 0 201.5 67.5t74.5 188.5v301q0 121 -74.5 187.5t-203.5 66.5 q-125 0 -196 -63.5t-71 -180.5z" />
<glyph unicode="e" d="M821 324h158q-8 -164 -121 -254t-305 -90q-203 0 -318.5 102t-115.5 293v299q0 190 115.5 290.5t316.5 100.5q199 0 314.5 -101.5t115.5 -289.5v-197h-705v-112q0 -117 72 -182.5t205 -65.5q125 0 193.5 56.5t74.5 150.5zM276 684v-80h545v80q0 119 -72.5 181.5 t-197.5 62.5q-127 0 -201 -62.5t-74 -181.5z" />
<glyph unicode="f" horiz-adv-x="747" d="M72 0v137h194v770h-225v137h225v93q0 78 7.5 134t25.5 110.5t52 83t87 52.5q45 20 107 20q11 0 22 -1q76 -4 181 -16v-131q-69 9 -122 9q-97 0 -138 -32q-62 -49 -62 -213v-109h322v-137h-322v-770h195v-137h-549z" />
<glyph unicode="g" horiz-adv-x="1196" d="M119 414v260q0 188 104.5 289.5t286.5 101.5q225 0 328 -143l20 122h318v-137h-195v-942q0 -190 -115.5 -292.5t-320.5 -102.5q-199 0 -312.5 97t-113.5 274v2h157v-13q0 -104 72 -163.5t197 -59.5q131 0 203.5 64.5t72.5 183.5v195q-106 -129 -311 -130 q-182 0 -286.5 103t-104.5 291zM276 684v-281q0 -117 72 -181t197 -64q127 0 201.5 67.5t74.5 188.5v260q0 121 -74.5 187.5t-203.5 66.5q-125 0 -196 -63.5t-71 -180.5z" />
<glyph unicode="h" horiz-adv-x="1394" d="M102 1378v138h355v-572q104 121 311 121q184 0 287.5 -96.5t103.5 -284.5v-547h195v-137h-353v694q0 233 -266 234q-127 0 -202.5 -62.5t-75.5 -181.5v-547h194v-137h-549v137h195v1241h-195z" />
<glyph unicode="i" horiz-adv-x="733" d="M297 1249v232h160v-232h-160zM457 1044v-907h194v-137h-549v137h195v770h-195v137h355z" />
<glyph unicode="j" horiz-adv-x="641" d="M297 1249v232h160v-232h-160zM297 -80v987h-195v137h355v-1107q0 -211 -82 -302q-53 -58 -166 -58q-62 0 -141 17v132q49 -10 86 -10q63 0 94 28q49 45 49 176z" />
<glyph unicode="k" horiz-adv-x="1349" d="M1298 137v-137h-282l-377 504l-182 -178v-189h184v-137h-539v137h195v1241h-195v138h355v-1035l426 426h-168v137h518v-137h-166l-305 -299l352 -471h184z" />
<glyph unicode="l" horiz-adv-x="733" d="M457 1516v-1379h194v-137h-549v137h195v1241h-195v138h355z" />
<glyph unicode="m" horiz-adv-x="1906" d="M905 0v707q0 221 -219 221q-104 0 -166.5 -59.5t-62.5 -172.5v-559h184v-137h-539v137h195v770h-195v137h318l18 -108q92 129 283 129q221 0 301 -162q90 162 305 162q162 0 253 -90t91 -270v-568h195v-137h-355v707q0 221 -219 221q-102 0 -165.5 -58.5t-63.5 -173.5 v-559h184v-137h-342z" />
<glyph unicode="n" horiz-adv-x="1394" d="M102 907v137h318l20 -118q104 139 328 139q184 0 287.5 -96.5t103.5 -284.5v-547h195v-137h-353v694q0 233 -266 234q-127 0 -202.5 -62.5t-75.5 -181.5v-547h194v-137h-549v137h195v770h-195z" />
<glyph unicode="o" d="M981 674v-301q0 -190 -115.5 -291.5t-316.5 -101.5q-199 0 -314.5 101t-115.5 292v301q0 190 115.5 290.5t316.5 100.5q199 0 314.5 -101.5t115.5 -289.5zM821 362v322q0 119 -72.5 181.5t-197.5 62.5q-127 0 -201 -62.5t-74 -181.5v-322q0 -121 73 -183t200 -62 t199.5 62t72.5 183z" />
<glyph unicode="p" horiz-adv-x="1277" d="M102 907v137h318l20 -122q109 143 328 143q182 0 286.5 -101.5t104.5 -289.5v-301q0 -188 -104.5 -290.5t-286.5 -102.5q-207 0 -311 118v-370h194v-138h-549v138h195v1179h-195zM1001 362v322q0 117 -70.5 180.5t-195.5 63.5q-129 0 -203.5 -66.5t-74.5 -187.5v-301 q0 -121 74.5 -188.5t201.5 -67.5q125 0 196.5 64t71.5 181z" />
<glyph unicode="q" horiz-adv-x="1196" d="M627 -410v138h194v381q-106 -129 -311 -129q-182 0 -286.5 102t-104.5 291v301q0 188 104.5 289.5t286.5 101.5q225 0 328 -143l20 122h318v-137h-195v-1179h195v-138h-549zM276 684v-322q0 -117 72 -181t197 -64q127 0 201.5 67.5t74.5 188.5v301q0 121 -74.5 187.5 t-203.5 66.5q-125 0 -196 -63.5t-71 -180.5z" />
<glyph unicode="r" horiz-adv-x="880" d="M102 907v137h318l22 -131q68 92 184 129q65 21 131 21q51 0 103 -12v-144q-61 11 -115 11q-103 0 -177 -41q-112 -63 -111 -193v-547h194v-137h-549v137h195v770h-195z" />
<glyph unicode="s" horiz-adv-x="1067" d="M940 725h-160v10q-6 199 -248 199q-246 0 -245 -160q0 -76 66.5 -116t217.5 -68q197 -39 293.5 -105.5t96.5 -212.5q0 -137 -105.5 -214.5t-282.5 -77.5q-231 0 -325 114l-17 -94h-122v319h157q0 -207 275 -206q260 0 260 168q0 74 -65.5 113.5t-215.5 68.5 q-197 37 -294 103.5t-97 215.5q0 123 93 203t276 80q211 0 303 -113l16 92h123v-319z" />
<glyph unicode="t" horiz-adv-x="808" d="M406 907v-538q0 -164 62 -213q42 -33 143 -33q51 0 116 8v-131q-104 -12 -180 -16q-11 -1 -22 -1q-62 0 -107 20q-53 24 -87 52.5t-52.5 83t-25.5 110.5t-7 134v524h-205v137h205v349l160 47v-396h321v-137h-321z" />
<glyph unicode="u" horiz-adv-x="1343" d="M41 1044h354v-692q0 -236 267 -235q129 0 203.5 63.5t74.5 181.5v545h-195v137h353v-907h194v-137h-317l-21 121q-104 -141 -327 -141q-184 0 -287.5 96t-103.5 286v545h-195v137z" />
<glyph unicode="v" horiz-adv-x="1335" d="M768 0h-201l-374 907h-162v137h508v-137h-181l316 -764l313 764h-180v137h498v-137h-160z" />
<glyph unicode="w" horiz-adv-x="1849" d="M670 0h-178l-310 907h-151v137h501v-137h-190l244 -727l266 864h158l264 -864l244 727h-191v137h492v-137h-152l-307 -907h-178l-256 805z" />
<glyph unicode="x" horiz-adv-x="1275" d="M61 0v137h142l340 381l-340 389h-142v137h488v-137h-152l250 -305l252 305h-151v137h466v-137h-141l-342 -379l342 -391h141v-137h-487v137h152l-252 305l-250 -305h151v-137h-467z" />
<glyph unicode="y" horiz-adv-x="1335" d="M307 -410v138h199l115 272h-54l-374 907h-162v137h508v-137h-181l316 -764l313 764h-180v137h498v-137h-160l-494 -1179h172v-138h-516z" />
<glyph unicode="z" horiz-adv-x="1015" d="M82 137l655 770h-495v-202h-160v339h852v-137l-655 -770h497v203h158v-340h-852v137z" />
<glyph unicode="{" horiz-adv-x="690" d="M225 76v403q0 74 -43 119t-116 45h-66v148h66q74 0 116.5 46t42.5 119v402q0 137 84 221t219 84h121v-147h-90q-76 0 -121 -44.5t-45 -119.5v-357q0 -100 -46 -172.5t-128 -105.5q80 -31 127 -104.5t47 -172.5v-356q0 -76 45 -121t121 -45h90v-147h-121q-135 0 -219 84 t-84 221z" />
<glyph unicode="|" horiz-adv-x="430" d="M143 -276v1986h144v-1986h-144z" />
<glyph unicode="}" horiz-adv-x="690" d="M465 1358v-402q0 -76 43 -120.5t117 -44.5h65v-148h-65q-74 0 -117 -45t-43 -119v-403q0 -137 -84 -221t-219 -84h-121v147h90q76 0 121 45t45 121v356q0 98 47 172t127 105q-82 33 -128 105.5t-46 172.5v357q0 76 -45 120t-121 44h-90v147h121q135 0 219 -84t84 -221z " />
<glyph unicode="~" horiz-adv-x="1048" d="M86 670q109 190 242 190q78 0 209 -80t182 -80q78 0 158 125l88 -55q-109 -190 -242 -190q-78 0 -214 79.5t-187 79.5q-68 0 -148 -125z" />
<glyph unicode="&#xa1;" horiz-adv-x="528" d="M184 -389v1034h160v-1034h-160zM184 815v229h160v-229h-160z" />
<glyph unicode="&#xa2;" horiz-adv-x="1118" d="M1016 1081h-158v13q-4 106 -81 164.5t-212 58.5q-145 0 -224 -64.5t-79 -183.5v-336q0 -119 79 -183.5t222 -64.5q139 0 217 60.5t78 165.5v12h158v-2q0 -160 -97.5 -256t-275.5 -113v-229h-158v227q-184 18 -283.5 119.5t-99.5 273.5v316q0 172 101.5 273.5t281.5 117.5 v229h158v-231q156 -23 229 -121l21 107h123v-353z" />
<glyph unicode="&#xa3;" horiz-adv-x="1286" d="M283 774v285q0 190 112.5 292.5t311.5 102.5q213 0 311 -129l20 109h133v-430h-170v67q0 113 -72.5 174.5t-197.5 61.5q-131 0 -204.5 -64.5t-73.5 -183.5v-285h430v-127h-430v-500h731v-147h-1123v147h222v500h-222v127h222z" />
<glyph unicode="&#xa4;" horiz-adv-x="1304" d="M121 719q0 188 104 330l-196 198l96 96l197 -198q135 106 329 106q193 0 328 -106l207 207l98 -97l-207 -206q106 -139 107 -330q0 -195 -107 -330l199 -196l-96 -97l-199 197q-141 -104 -330 -105q-199 0 -329 107l-203 -203l-99 96l203 203q-102 138 -102 328zM279 719 q0 -174 104 -283.5t268 -109.5t268.5 109.5t104.5 283.5t-104.5 284.5t-268.5 110.5t-268 -110.5t-104 -284.5z" />
<glyph unicode="&#xa5;" horiz-adv-x="1443" d="M252 547v127h307l-389 612h-170v148h549v-148h-180l362 -577l365 577h-199v148h547v-148h-168l-389 -612h307v-127h-387v-400h235v-147h-639v147h236v400h-387z" />
<glyph unicode="&#xa6;" horiz-adv-x="430" d="M143 961v749h144v-749h-144zM143 -276v749h144v-749h-144z" />
<glyph unicode="&#xa7;" horiz-adv-x="1271" d="M1149 498q0 -172 -125 -285q125 -86 125 -260q0 -182 -133 -282.5t-375 -100.5q-246 0 -377 108.5t-131 323.5v18h168v-18q0 -285 340 -285q164 0 249 59.5t85 166.5q0 94 -54.5 136t-168.5 64l-271 52q-180 33 -269 110.5t-89 220.5q0 176 125 285q-125 86 -125 260 q0 182 133 282.5t377 100.5q246 0 377 -108.5t131 -323.5v-18h-170v18q0 285 -338 285q-166 0 -251 -58.5t-85 -167.5q0 -94 54.5 -136t168.5 -62l273 -52q178 -33 267 -111.5t89 -221.5zM750 676l-271 51q-66 12 -98 23q-84 -82 -84 -197q0 -92 56.5 -137t168.5 -68 l273 -51q39 -8 96 -23q84 80 84 197q0 92 -56 137t-169 68z" />
<glyph unicode="&#xa8;" horiz-adv-x="661" d="M41 1239v221h139v-221h-139zM461 1239v221h139v-221h-139z" />
<glyph unicode="&#xa9;" horiz-adv-x="1802" d="M276 717q0 -289 171 -462t454 -173q285 0 455 173t170 462q0 291 -170 464t-455 173q-283 0 -454 -173t-171 -464zM164 717q0 336 200.5 536.5t536.5 200.5t536.5 -200.5t200.5 -536.5t-200.5 -536.5t-536.5 -200.5t-536.5 200.5t-200.5 536.5zM1133 598h112v-27 q0 -137 -91 -213.5t-251 -76.5q-162 0 -254 80.5t-92 228.5v256q0 147 92 227t256 80q158 0 249 -76t91 -213v-16h-112v16q0 92 -59.5 141.5t-168.5 49.5q-236 0 -235 -209v-256q0 -102 60.5 -155.5t172.5 -53.5q109 0 169.5 49t60.5 141v27z" />
<glyph unicode="&#xaa;" horiz-adv-x="751" d="M63 972.5q0 98.5 62.5 150t171.5 51.5q131 0 192 -72v125q0 125 -135 125q-133 0 -133 -111h-127q0 213 260 213q123 0 192.5 -59.5t69.5 -175.5v-324h107v-111h-205l-20 72q-59 -84 -203 -84q-109 0 -170.5 51t-61.5 149.5zM190 976.5q0 -102.5 146 -102.5 q66 0 107.5 25t45.5 68v18q-4 43 -46 68.5t-107 25.5q-146 0 -146 -102.5z" />
<glyph unicode="&#xab;" horiz-adv-x="892" d="M465 135l-424 328v139l424 328v-162l-287 -236l287 -231v-166zM831 135l-423 328v139l423 328v-162l-288 -236l288 -231v-166z" />
<glyph unicode="&#xac;" horiz-adv-x="1048" d="M61 786h926v-538h-143v401h-783v137z" />
<glyph unicode="&#xad;" horiz-adv-x="530" d="M61 455v137h408v-137h-408z" />
<glyph unicode="&#xae;" horiz-adv-x="749" d="M61 1120.5q0 143.5 85 228.5t228.5 85t228.5 -85t85 -228.5t-85 -228.5t-228.5 -85t-228.5 85t-85 228.5zM115 1120q0 -121 70.5 -192.5t189.5 -71.5t189.5 71.5t70.5 192.5t-70.5 193.5t-189.5 72.5t-189.5 -72.5t-70.5 -193.5zM514 1188q0 -90 -72 -111l70 -137h-68 l-65 131h-76v-131h-59v360h153q117 1 117 -112zM455 1185.5q0 61.5 -60 61.5h-92v-123h92q60 0 60 61.5z" />
<glyph unicode="&#xaf;" horiz-adv-x="638" d="M41 1268v116h557v-116h-557z" />
<glyph unicode="&#xb0;" horiz-adv-x="661" d="M51 1176q0 123 78 200.5t203 77.5q123 0 200.5 -78t77.5 -200q0 -125 -77.5 -203t-200.5 -78q-125 0 -203 78t-78 203zM158 1175.5q0 -77.5 48 -126t126 -48.5t125 48.5t47 126t-48 126t-124 48.5q-78 0 -126 -48.5t-48 -126z" />
<glyph unicode="&#xb1;" horiz-adv-x="1048" d="M451 848v405h145v-405h391v-137h-391v-402h-145v402h-390v137h390zM61 137h926v-137h-926v137z" />
<glyph unicode="&#xb2;" horiz-adv-x="772" d="M637 1233q0 -127 -133 -229l-217 -213h358v-111h-522v111l323 305q66 59 66 127q0 53 -35 82.5t-96 29.5q-59 0 -95 -33.5t-36 -97.5v-26h-127v256h98l17 -62q66 72 178 72q102 0 161.5 -54.5t59.5 -156.5z" />
<glyph unicode="&#xb3;" horiz-adv-x="796" d="M649 1237q0 -133 -125 -178q129 -45 129 -180q0 -96 -67.5 -152.5t-190.5 -56.5q-125 0 -193.5 56t-68.5 153v36h123v-22q0 -53 36 -83t99.5 -30t98 31t34.5 84q0 55 -34.5 86t-100.5 31h-41v92h41q63 0 97 31.5t34 85t-34.5 84t-96.5 30.5q-59 0 -94 -30.5t-39 -79.5 v-25h-123v236h98l15 -62q63 72 180 72q102 0 162.5 -55.5t60.5 -153.5z" />
<glyph unicode="&#xb4;" horiz-adv-x="454" d="M170 1188h-129l207 328h168z" />
<glyph unicode="&#xb5;" horiz-adv-x="1148" d="M1006 1044v-1044h-123l-21 121q-104 -141 -327 -141q-137 0 -232 53v-443h-160v1454h160v-692q0 -236 266 -235q127 0 203 63.5t76 181.5v682h158z" />
<glyph unicode="&#x3bc;" horiz-adv-x="1148" d="M1006 1044v-1044h-123l-21 121q-104 -141 -327 -141q-137 0 -232 53v-443h-160v1454h160v-692q0 -236 266 -235q127 0 203 63.5t76 181.5v682h158z" />
<glyph unicode="&#xb6;" horiz-adv-x="1077" d="M934 1434v-1434h-150v1286h-127v-1286h-149v766h-102q-164 0 -254.5 83t-90.5 253q0 168 91.5 250t253.5 82h528z" />
<glyph unicode="&#xb7;" horiz-adv-x="466" d="M143 592v252h181v-252h-181z" />
<glyph unicode="&#xb8;" horiz-adv-x="440" d="M66 -408l-25 95q106 -14 163.5 0t57.5 65t-57.5 64.5t-163.5 -0.5l25 92q154 20 243.5 -20t89.5 -138q0 -100 -89.5 -140.5t-243.5 -17.5z" />
<glyph unicode="&#xb9;" horiz-adv-x="598" d="M102 680v111h160v516l-160 -115v127l160 115h125v-643h150v-111h-435z" />
<glyph unicode="&#xba;" horiz-adv-x="737" d="M645 1202v-178q0 -123 -73.5 -187.5t-202.5 -64.5q-127 0 -202 64.5t-75 187.5v178q0 123 75 187.5t202 64.5q129 0 202.5 -64.5t73.5 -187.5zM518 1018v190q0 66 -40 100.5t-109.5 34.5t-109.5 -34.5t-40 -100.5v-190q0 -66 40 -100.5t109.5 -34.5t109.5 34.5t40 100.5z " />
<glyph unicode="&#xbb;" horiz-adv-x="892" d="M428 930l424 -328v-139l-424 -328v164l287 233l-287 234v164zM61 930l424 -328v-139l-424 -328v164l289 233l-289 234v164z" />
<glyph unicode="&#xbc;" horiz-adv-x="1585" d="M139 680v108h158v517l-158 -113v127l158 115h127v-646h147v-108h-432zM1133 0v100h96v109h-297v108l221 437h133l-229 -437h172v129l125 21v-150h137v-108h-137v-109h94v-100h-315zM221 0l987 1434h142l-988 -1434h-141z" />
<glyph unicode="&#xbd;" horiz-adv-x="1632" d="M1503 553q0 -125 -133 -229l-217 -213h356v-111h-520v111l324 305q66 59 65 127q0 53 -35.5 82.5t-95.5 29.5q-61 0 -97 -33.5t-36 -97.5v-26h-125v256h98l15 -62q63 72 178 72q104 0 163.5 -54.5t59.5 -156.5zM221 0l987 1434h142l-988 -1434h-141zM139 680v108h158v517 l-158 -113v127l158 115h127v-646h147v-108h-432z" />
<glyph unicode="&#xbe;" horiz-adv-x="1660" d="M649 1237q0 -133 -125 -178q129 -45 129 -180q0 -96 -67.5 -152.5t-190.5 -56.5q-125 0 -193.5 56t-68.5 153v36h123v-22q0 -53 36 -83t99.5 -30t98 31t34.5 84q0 55 -34.5 86t-100.5 31h-41v92h41q63 0 97 31.5t34 85t-34.5 84t-96.5 30.5q-59 0 -94 -30.5t-39 -79.5 v-25h-123v236h98l15 -62q63 72 180 72q102 0 162.5 -55.5t60.5 -153.5zM297 0l987 1434h141l-987 -1434h-141zM1208 0v100h97v109h-297v108l221 437h133l-229 -437h172v129l125 21v-150h137v-108h-137v-109h94v-100h-316z" />
<glyph unicode="&#xbf;" horiz-adv-x="1284" d="M723 279h-80q-160 0 -250 -71t-90 -194q0 -125 90 -195.5t250 -70.5q158 0 248 70.5t90 195.5v47h160v-47q0 -186 -133.5 -294.5t-364.5 -108.5t-365.5 108.5t-134.5 294.5q0 170 112 274.5t308 121.5v256h160v-387zM563 836v229h160v-229h-160z" />
<glyph unicode="&#xc0;" horiz-adv-x="1574" d="M20 0v147h179l489 1287h207l489 -1287h170v-147h-536v147h186l-114 293h-613l-112 -293h194v-147h-539zM784 1264l-258 -676h516zM911 1516h-137l-225 296h176z" />
<glyph unicode="&#xc1;" horiz-adv-x="1574" d="M20 0v147h179l489 1287h207l489 -1287h170v-147h-536v147h186l-114 293h-613l-112 -293h194v-147h-539zM784 1264l-258 -676h516zM811 1516h-139l188 296h176z" />
<glyph unicode="&#xc2;" horiz-adv-x="1574" d="M20 0v147h179l489 1287h207l489 -1287h170v-147h-536v147h186l-114 293h-613l-112 -293h194v-147h-539zM784 1264l-258 -676h516zM881 1812l231 -296h-149l-172 202l-173 -202h-145l232 296h176z" />
<glyph unicode="&#xc3;" horiz-adv-x="1574" d="M20 0v147h179l489 1287h207l489 -1287h170v-147h-536v147h186l-114 293h-613l-112 -293h194v-147h-539zM784 1264l-258 -676h516zM506 1550l-90 54q104 203 225 202q68 0 172.5 -76.5t136.5 -76.5q51 0 129 137l88 -53q-102 -203 -221 -203q-70 0 -174 76t-135 76 q-57 -1 -131 -136z" />
<glyph unicode="&#xc4;" horiz-adv-x="1574" d="M20 0v147h179l489 1287h207l489 -1287h170v-147h-536v147h186l-114 293h-613l-112 -293h194v-147h-539zM784 1264l-258 -676h516zM481 1552v220h140v-220h-140zM963 1552v220h139v-220h-139z" />
<glyph unicode="&#xc5;" horiz-adv-x="1574" d="M20 0v147h179l489 1287h207l489 -1287h170v-147h-536v147h186l-114 293h-613l-112 -293h194v-147h-539zM784 1264l-258 -676h516zM584 1667q0 88 57 142.5t149.5 54.5t150.5 -54.5t58 -142.5t-58 -142.5t-150.5 -54.5t-149.5 54.5t-57 142.5zM686 1667q0 -53 27.5 -83 t77 -30t77 30t27.5 83t-27.5 83t-77 30t-77 -30t-27.5 -83z" />
<glyph unicode="&#xc6;" horiz-adv-x="2177" d="M977 0v147h194v293h-587l-219 -293h174v-147h-539v147h176l817 1139h-184v148h1286v-410h-168v262h-588v-493h531v-148h-531v-498h588v263h168v-410h-1118zM662 588h509v710z" />
<glyph unicode="&#xc7;" horiz-adv-x="1325" d="M1042 973v8q0 154 -97 240t-269 86q-180 0 -281.5 -96.5t-101.5 -270.5v-446q0 -174 101.5 -270.5t279.5 -96.5q172 0 270 87t98 241v6h170v-6q0 -225 -143 -350t-395 -125q-258 0 -404.5 134t-146.5 380v446q0 240 142.5 377t389.5 137q281 0 404 -160l20 140h133v-461 h-170zM528 -408l-24 95q106 -14 163.5 0t57.5 65t-57.5 64.5t-163.5 -0.5l24 92q154 20 244 -20t90 -138q0 -100 -90 -140.5t-244 -17.5z" />
<glyph unicode="&#xc8;" horiz-adv-x="1304" d="M803 1516h-137l-226 296h176zM297 147v1139h-195v148h1121v-410h-170v262h-586v-493h530v-148h-530v-498h586v263h170v-410h-1121v147h195z" />
<glyph unicode="&#xc9;" horiz-adv-x="1304" d="M700 1516h-139l189 296h176zM297 147v1139h-195v148h1121v-410h-170v262h-586v-493h530v-148h-530v-498h586v263h170v-410h-1121v147h195z" />
<glyph unicode="&#xca;" horiz-adv-x="1304" d="M297 147v1139h-195v148h1121v-410h-170v262h-586v-493h530v-148h-530v-498h586v263h170v-410h-1121v147h195zM770 1812l231 -296h-149l-172 202l-172 -202h-146l232 296h176z" />
<glyph unicode="&#xcb;" horiz-adv-x="1304" d="M373 1552v220h139v-220h-139zM854 1552v220h139v-220h-139zM297 147v1139h-195v148h1121v-410h-170v262h-586v-493h530v-148h-530v-498h586v263h170v-410h-1121v147h195z" />
<glyph unicode="&#xcc;" horiz-adv-x="763" d="M467 1286v-1139h195v-147h-560v147h195v1139h-195v148h560v-148h-195zM461 1516h-137l-226 296h176z" />
<glyph unicode="&#xcd;" horiz-adv-x="763" d="M467 1286v-1139h195v-147h-560v147h195v1139h-195v148h560v-148h-195zM440 1516h-139l188 296h177z" />
<glyph unicode="&#xce;" horiz-adv-x="763" d="M467 1286v-1139h195v-147h-560v147h195v1139h-195v148h560v-148h-195zM469 1812l231 -296h-149l-172 202l-172 -202h-146l232 296h176z" />
<glyph unicode="&#xcf;" horiz-adv-x="763" d="M123 1552v220h139v-220h-139zM502 1552v220h139v-220h-139zM467 1286v-1139h195v-147h-560v147h195v1139h-195v148h560v-148h-195z" />
<glyph unicode="&#xd0;" horiz-adv-x="1437" d="M154 659v117h143v510h-195v148h650q260 0 406.5 -132.5t146.5 -373.5v-420q0 -244 -147.5 -376t-409.5 -132h-646v147h195v512h-143zM1135 508v420q0 172 -101.5 265t-281.5 93h-285v-510h305v-117h-305v-512h281q182 0 284.5 94.5t102.5 266.5z" />
<glyph unicode="&#xd1;" horiz-adv-x="1601" d="M545 1550l-90 54q104 203 225 202q68 0 172 -76.5t137 -76.5q51 0 129 137l88 -53q-100 -203 -221 -203q-70 0 -174 76t-135 76q-57 -1 -131 -136zM467 1124v-977h195v-147h-560v147h195v1139h-195v148h355l739 -1123v975h-195v148h560v-148h-195v-1286h-160z" />
<glyph unicode="&#xd2;" horiz-adv-x="1355" d="M786 1516h-137l-225 296h176zM1063 494v446q0 174 -101.5 270.5t-281.5 96.5q-184 0 -285.5 -96.5t-101.5 -270.5v-446q0 -174 101.5 -270.5t281.5 -96.5q184 0 285.5 96.5t101.5 270.5zM1233 940v-446q0 -246 -147.5 -380t-409.5 -134q-258 0 -405.5 134t-147.5 380v446 q0 246 147.5 380t409.5 134q260 0 406.5 -134t146.5 -380z" />
<glyph unicode="&#xd3;" horiz-adv-x="1355" d="M686 1516h-139l188 296h176zM1063 494v446q0 174 -101.5 270.5t-281.5 96.5q-184 0 -285.5 -96.5t-101.5 -270.5v-446q0 -174 101.5 -270.5t281.5 -96.5q184 0 285.5 96.5t101.5 270.5zM1233 940v-446q0 -246 -147.5 -380t-409.5 -134q-258 0 -405.5 134t-147.5 380v446 q0 246 147.5 380t409.5 134q260 0 406.5 -134t146.5 -380z" />
<glyph unicode="&#xd4;" horiz-adv-x="1355" d="M1063 494v446q0 174 -101.5 270.5t-281.5 96.5q-184 0 -285.5 -96.5t-101.5 -270.5v-446q0 -174 101.5 -270.5t281.5 -96.5q184 0 285.5 96.5t101.5 270.5zM1233 940v-446q0 -246 -147.5 -380t-409.5 -134q-258 0 -405.5 134t-147.5 380v446q0 246 147.5 380t409.5 134 q260 0 406.5 -134t146.5 -380zM756 1812l231 -296h-149l-172 202l-172 -202h-146l232 296h176z" />
<glyph unicode="&#xd5;" horiz-adv-x="1355" d="M391 1550l-90 54q104 203 225 202q68 0 172.5 -76.5t137.5 -76.5q51 0 129 137l88 -53q-102 -203 -222 -203q-70 0 -174 76t-135 76q-57 -1 -131 -136zM1063 494v446q0 174 -101.5 270.5t-281.5 96.5q-184 0 -285.5 -96.5t-101.5 -270.5v-446q0 -174 101.5 -270.5 t281.5 -96.5q184 0 285.5 96.5t101.5 270.5zM1233 940v-446q0 -246 -147.5 -380t-409.5 -134q-258 0 -405.5 134t-147.5 380v446q0 246 147.5 380t409.5 134q260 0 406.5 -134t146.5 -380z" />
<glyph unicode="&#xd6;" horiz-adv-x="1355" d="M356 1552v220h140v-220h-140zM838 1552v220h139v-220h-139zM1063 494v446q0 174 -101.5 270.5t-281.5 96.5q-184 0 -285.5 -96.5t-101.5 -270.5v-446q0 -174 101.5 -270.5t281.5 -96.5q184 0 285.5 96.5t101.5 270.5zM1233 940v-446q0 -246 -147.5 -380t-409.5 -134 q-258 0 -405.5 134t-147.5 380v446q0 246 147.5 380t409.5 134q260 0 406.5 -134t146.5 -380z" />
<glyph unicode="&#xd7;" horiz-adv-x="1048" d="M522 817l330 330l98 -96l-332 -332l324 -322l-96 -96l-324 322l-327 -326l-99 96l328 328l-320 321l97 97z" />
<glyph unicode="&#xd8;" horiz-adv-x="1355" d="M1233 940v-446q0 -246 -147.5 -380t-409.5 -134q-184 0 -314 67l-133 -231l-108 63l139 242q-137 137 -137 373v446q0 246 147.5 380t409.5 134q182 0 311 -68l133 232l109 -64l-139 -241q139 -140 139 -373zM1063 494v446q0 131 -59 219l-562 -975q90 -57 234 -57 q184 0 285.5 96.5t101.5 270.5zM293 494q0 -127 57 -218l561 973q-96 57 -231 58q-184 0 -285.5 -96.5t-101.5 -270.5v-446z" />
<glyph unicode="&#xd9;" horiz-adv-x="1540" d="M889 1516h-137l-226 296h176zM41 1286v148h559v-148h-194v-811q0 -166 96 -257t266 -91q172 0 269.5 91t97.5 257v811h-195v148h559v-148h-194v-811q0 -238 -142.5 -366.5t-394.5 -128.5q-248 0 -390 129t-142 366v811h-195z" />
<glyph unicode="&#xda;" horiz-adv-x="1540" d="M788 1516h-139l189 296h176zM41 1286v148h559v-148h-194v-811q0 -166 96 -257t266 -91q172 0 269.5 91t97.5 257v811h-195v148h559v-148h-194v-811q0 -238 -142.5 -366.5t-394.5 -128.5q-248 0 -390 129t-142 366v811h-195z" />
<glyph unicode="&#xdb;" horiz-adv-x="1540" d="M41 1286v148h559v-148h-194v-811q0 -166 96 -257t266 -91q172 0 269.5 91t97.5 257v811h-195v148h559v-148h-194v-811q0 -238 -142.5 -366.5t-394.5 -128.5q-248 0 -390 129t-142 366v811h-195zM858 1812l232 -296h-150l-172 202l-172 -202h-145l231 296h176z" />
<glyph unicode="&#xdc;" horiz-adv-x="1540" d="M459 1552v220h139v-220h-139zM940 1552v220h139v-220h-139zM41 1286v148h559v-148h-194v-811q0 -166 96 -257t266 -91q172 0 269.5 91t97.5 257v811h-195v148h559v-148h-194v-811q0 -238 -142.5 -366.5t-394.5 -128.5q-248 0 -390 129t-142 366v811h-195z" />
<glyph unicode="&#xdd;" horiz-adv-x="1443" d="M1444 1434v-148h-168l-469 -737v-402h235v-147h-639v147h236v402l-469 737h-170v148h549v-148h-180l362 -577l365 577h-199v148h547zM741 1516h-139l189 296h176z" />
<glyph unicode="&#xde;" horiz-adv-x="1355" d="M467 1434v-271h369q217 0 337.5 -110.5t120.5 -335.5q0 -223 -121.5 -335t-336.5 -112h-369v-270h-365v147h195v1139h-195v148h365zM467 1016v-598h364q137 0 213 73.5t76 225.5q0 299 -289 299h-364z" />
<glyph unicode="&#xdf;" horiz-adv-x="1394" d="M41 0v137h195v989q0 186 137 298t362 112q223 0 357.5 -103.5t134.5 -275.5q0 -231 -213 -330q137 -49 213 -158.5t76 -267.5q0 -201 -110 -311t-298 -110q-174 0 -267 96t-93 260v16h147v-6q0 -104 59.5 -166.5t151.5 -62.5q121 0 186.5 78.5t65.5 216.5 q0 158 -102.5 247t-276.5 91h-39v137h21q145 4 232 72.5t87 183.5q0 117 -89 186.5t-242.5 69.5t-247 -78t-93.5 -209v-1112h-354z" />
<glyph unicode="&#xe0;" horiz-adv-x="1169" d="M82 295q0 158 102.5 236.5t284.5 78.5q213 0 317 -104v201q0 111 -66.5 169t-182.5 58q-123 0 -183.5 -48t-60.5 -155h-160q0 334 404 334q190 0 298.5 -93t108.5 -276v-559h184v-137h-307l-18 111q-102 -131 -336 -131q-180 0 -282.5 78.5t-102.5 236.5zM242 301 q0 -184 266 -184q127 0 202.5 48t75.5 136t-75.5 135t-202.5 47q-266 0 -266 -182zM643 1188h-127l-246 328h166z" />
<glyph unicode="&#xe1;" horiz-adv-x="1169" d="M82 295q0 158 102.5 236.5t284.5 78.5q213 0 317 -104v201q0 111 -66.5 169t-182.5 58q-123 0 -183.5 -48t-60.5 -155h-160q0 334 404 334q190 0 298.5 -93t108.5 -276v-559h184v-137h-307l-18 111q-102 -131 -336 -131q-180 0 -282.5 78.5t-102.5 236.5zM242 301 q0 -184 266 -184q127 0 202.5 48t75.5 136t-75.5 135t-202.5 47q-266 0 -266 -182zM563 1188h-129l207 328h168z" />
<glyph unicode="&#xe2;" horiz-adv-x="1169" d="M82 295q0 158 102.5 236.5t284.5 78.5q213 0 317 -104v201q0 111 -66.5 169t-182.5 58q-123 0 -183.5 -48t-60.5 -155h-160q0 334 404 334q190 0 298.5 -93t108.5 -276v-559h184v-137h-307l-18 111q-102 -131 -336 -131q-180 0 -282.5 78.5t-102.5 236.5zM242 301 q0 -184 266 -184q127 0 202.5 48t75.5 136t-75.5 135t-202.5 47q-266 0 -266 -182zM616 1516l222 -328h-148l-153 217l-154 -217h-143l221 328h155z" />
<glyph unicode="&#xe3;" horiz-adv-x="1169" d="M82 295q0 158 102.5 236.5t284.5 78.5q213 0 317 -104v201q0 111 -66.5 169t-182.5 58q-123 0 -183.5 -48t-60.5 -155h-160q0 334 404 334q190 0 298.5 -93t108.5 -276v-559h184v-137h-307l-18 111q-102 -131 -336 -131q-180 0 -282.5 78.5t-102.5 236.5zM242 301 q0 -184 266 -184q127 0 202.5 48t75.5 136t-75.5 135t-202.5 47q-266 0 -266 -182zM281 1253l-91 54q104 203 220 202q53 0 105 -37.5t94 -76.5t69 -39q47 0 125 137l88 -53q-100 -203 -219 -203q-53 0 -104.5 38t-93.5 76t-71 38q-48 -1 -122 -136z" />
<glyph unicode="&#xe4;" horiz-adv-x="1169" d="M82 295q0 158 102.5 236.5t284.5 78.5q213 0 317 -104v201q0 111 -66.5 169t-182.5 58q-123 0 -183.5 -48t-60.5 -155h-160q0 334 404 334q190 0 298.5 -93t108.5 -276v-559h184v-137h-307l-18 111q-102 -131 -336 -131q-180 0 -282.5 78.5t-102.5 236.5zM242 301 q0 -184 266 -184q127 0 202.5 48t75.5 136t-75.5 135t-202.5 47q-266 0 -266 -182zM258 1239v221h139v-221h-139zM678 1239v221h139v-221h-139z" />
<glyph unicode="&#xe5;" horiz-adv-x="1169" d="M82 295q0 158 102.5 236.5t284.5 78.5q213 0 317 -104v201q0 111 -66.5 169t-182.5 58q-123 0 -183.5 -48t-60.5 -155h-160q0 334 404 334q190 0 298.5 -93t108.5 -276v-559h184v-137h-307l-18 111q-102 -131 -336 -131q-180 0 -282.5 78.5t-102.5 236.5zM242 301 q0 -184 266 -184q127 0 202.5 48t75.5 136t-75.5 135t-202.5 47q-266 0 -266 -182zM330 1339q0 88 57 142.5t149.5 54.5t150.5 -54.5t58 -142.5t-58 -142t-150.5 -54t-149.5 54t-57 142zM432 1339.5q0 -53.5 27.5 -83t77 -29.5t77 29.5t27.5 83t-27.5 83t-77 29.5t-77 -29.5 t-27.5 -83z" />
<glyph unicode="&#xe6;" horiz-adv-x="1765" d="M1489 324h158q-8 -164 -118 -254t-292 -90q-264 0 -369 176q-98 -176 -391 -176q-186 0 -290.5 78.5t-104.5 236.5t102.5 236.5t284.5 78.5q211 0 317 -100v197q0 111 -66.5 169t-182.5 58q-123 0 -183.5 -48t-60.5 -155h-160q0 334 404 334q250 0 335 -170 q102 170 361 170q193 0 304.5 -101.5t111.5 -289.5v-197h-705v-112q0 -117 74 -182.5t203 -65.5q125 0 193.5 56.5t74.5 150.5zM242 301q0 -184 266 -184q127 0 202.5 48t75.5 136t-75.5 135t-202.5 47q-266 0 -266 -182zM944 684v-80h545v80q0 119 -73 181.5t-197 62.5 q-127 0 -201 -62.5t-74 -181.5z" />
<glyph unicode="&#xe7;" horiz-adv-x="1077" d="M981 692h-160v2q0 113 -70.5 173.5t-197.5 60.5q-131 0 -204 -64.5t-73 -183.5v-315q0 -117 74 -182.5t203 -65.5q125 0 196.5 60.5t71.5 164.5v12h160v-2q0 -176 -114.5 -274t-313.5 -98q-203 0 -318.5 103t-115.5 292v295q0 190 110.5 292.5t305.5 102.5 q215 0 303 -121l20 100h123v-352zM420 -408l-25 95q106 -14 163.5 0t57.5 65t-57 64.5t-164 -0.5l25 92q154 20 244 -20t90 -138q0 -100 -90 -140.5t-244 -17.5z" />
<glyph unicode="&#xe8;" d="M821 324h158q-8 -164 -121 -254t-305 -90q-203 0 -318.5 102t-115.5 293v299q0 190 115.5 290.5t316.5 100.5q199 0 314.5 -101.5t115.5 -289.5v-197h-705v-112q0 -117 72 -182.5t205 -65.5q125 0 193.5 56.5t74.5 150.5zM276 684v-80h545v80q0 119 -72.5 181.5 t-197.5 62.5q-127 0 -201 -62.5t-74 -181.5zM653 1188h-127l-245 328h165z" />
<glyph unicode="&#xe9;" d="M573 1188h-129l207 328h168zM821 324h158q-8 -164 -121 -254t-305 -90q-203 0 -318.5 102t-115.5 293v299q0 190 115.5 290.5t316.5 100.5q199 0 314.5 -101.5t115.5 -289.5v-197h-705v-112q0 -117 72 -182.5t205 -65.5q125 0 193.5 56.5t74.5 150.5zM276 684v-80h545v80 q0 119 -72.5 181.5t-197.5 62.5q-127 0 -201 -62.5t-74 -181.5z" />
<glyph unicode="&#xea;" d="M627 1516l221 -328h-148l-153 217l-154 -217h-143l221 328h156zM821 324h158q-8 -164 -121 -254t-305 -90q-203 0 -318.5 102t-115.5 293v299q0 190 115.5 290.5t316.5 100.5q199 0 314.5 -101.5t115.5 -289.5v-197h-705v-112q0 -117 72 -182.5t205 -65.5 q125 0 193.5 56.5t74.5 150.5zM276 684v-80h545v80q0 119 -72.5 181.5t-197.5 62.5q-127 0 -201 -62.5t-74 -181.5z" />
<glyph unicode="&#xeb;" d="M268 1239v221h140v-221h-140zM688 1239v221h139v-221h-139zM821 324h158q-8 -164 -121 -254t-305 -90q-203 0 -318.5 102t-115.5 293v299q0 190 115.5 290.5t316.5 100.5q199 0 314.5 -101.5t115.5 -289.5v-197h-705v-112q0 -117 72 -182.5t205 -65.5q125 0 193.5 56.5 t74.5 150.5zM276 684v-80h545v80q0 119 -72.5 181.5t-197.5 62.5q-127 0 -201 -62.5t-74 -181.5z" />
<glyph unicode="&#xec;" horiz-adv-x="733" d="M457 1044v-907h194v-137h-549v137h195v770h-195v137h355zM430 1188h-127l-246 328h166z" />
<glyph unicode="&#xed;" horiz-adv-x="733" d="M391 1188h-129l207 328h168zM457 1044v-907h194v-137h-549v137h195v770h-195v137h355z" />
<glyph unicode="&#xee;" horiz-adv-x="733" d="M424 1516l221 -328h-147l-154 217l-154 -217h-143l221 328h156zM457 1044v-907h194v-137h-549v137h195v770h-195v137h355z" />
<glyph unicode="&#xef;" horiz-adv-x="733" d="M109 1239v221h139v-221h-139zM446 1239v221h140v-221h-140zM457 1044v-907h194v-137h-549v137h195v770h-195v137h355z" />
<glyph unicode="&#xf0;" d="M268 1190l211 94q-100 78 -241 133l49 119q188 -70 331 -188l244 110l39 -100l-201 -90q281 -293 281 -754v-141q0 -190 -115.5 -291.5t-316.5 -101.5q-199 0 -314.5 101t-115.5 292v219q0 188 105.5 289.5t281.5 101.5q152 0 256 -70q-66 170 -195 295l-260 -116z M821 362v213q0 270 -270 271q-127 0 -201 -62.5t-74 -181.5v-240q0 -121 73 -183t200 -62t199.5 62t72.5 183z" />
<glyph unicode="&#xf1;" horiz-adv-x="1394" d="M102 907v137h318l20 -118q104 139 328 139q184 0 287.5 -96.5t103.5 -284.5v-547h195v-137h-353v694q0 233 -266 234q-127 0 -202.5 -62.5t-75.5 -181.5v-547h194v-137h-549v137h195v770h-195zM467 1253l-90 54q104 203 219 202q53 0 105.5 -37.5t94.5 -76.5t68 -39 q47 0 125 137l88 -53q-57 -113 -109.5 -158t-109.5 -45q-53 0 -104.5 38t-93.5 76t-70 38q-49 -1 -123 -136z" />
<glyph unicode="&#xf2;" d="M981 674v-301q0 -190 -115.5 -291.5t-316.5 -101.5q-199 0 -314.5 101t-115.5 292v301q0 190 115.5 290.5t316.5 100.5q199 0 314.5 -101.5t115.5 -289.5zM821 362v322q0 119 -72.5 181.5t-197.5 62.5q-127 0 -201 -62.5t-74 -181.5v-322q0 -121 73 -183t200 -62 t199.5 62t72.5 183zM653 1188h-127l-245 328h165z" />
<glyph unicode="&#xf3;" d="M573 1188h-129l207 328h168zM981 674v-301q0 -190 -115.5 -291.5t-316.5 -101.5q-199 0 -314.5 101t-115.5 292v301q0 190 115.5 290.5t316.5 100.5q199 0 314.5 -101.5t115.5 -289.5zM821 362v322q0 119 -72.5 181.5t-197.5 62.5q-127 0 -201 -62.5t-74 -181.5v-322 q0 -121 73 -183t200 -62t199.5 62t72.5 183z" />
<glyph unicode="&#xf4;" d="M627 1516l221 -328h-148l-153 217l-154 -217h-143l221 328h156zM981 674v-301q0 -190 -115.5 -291.5t-316.5 -101.5q-199 0 -314.5 101t-115.5 292v301q0 190 115.5 290.5t316.5 100.5q199 0 314.5 -101.5t115.5 -289.5zM821 362v322q0 119 -72.5 181.5t-197.5 62.5 q-127 0 -201 -62.5t-74 -181.5v-322q0 -121 73 -183t200 -62t199.5 62t72.5 183z" />
<glyph unicode="&#xf5;" d="M981 674v-301q0 -190 -115.5 -291.5t-316.5 -101.5q-199 0 -314.5 101t-115.5 292v301q0 190 115.5 290.5t316.5 100.5q199 0 314.5 -101.5t115.5 -289.5zM821 362v322q0 119 -72.5 181.5t-197.5 62.5q-127 0 -201 -62.5t-74 -181.5v-322q0 -121 73 -183t200 -62 t199.5 62t72.5 183zM289 1253l-90 54q104 203 219 202q53 0 105 -37.5t94 -76.5t69 -39q47 0 125 137l88 -53q-100 -203 -219 -203q-53 0 -104.5 38t-93.5 76t-70 38q-49 -1 -123 -136z" />
<glyph unicode="&#xf6;" d="M268 1239v221h140v-221h-140zM688 1239v221h139v-221h-139zM981 674v-301q0 -190 -115.5 -291.5t-316.5 -101.5q-199 0 -314.5 101t-115.5 292v301q0 190 115.5 290.5t316.5 100.5q199 0 314.5 -101.5t115.5 -289.5zM821 362v322q0 119 -72.5 181.5t-197.5 62.5 q-127 0 -201 -62.5t-74 -181.5v-322q0 -121 73 -183t200 -62t199.5 62t72.5 183z" />
<glyph unicode="&#xf7;" horiz-adv-x="1048" d="M61 786h926v-137h-926v137zM436 135v252h178v-252h-178zM436 1051v249h178v-249h-178z" />
<glyph unicode="&#xf8;" d="M965 1135l-99 -172q115 -102 115 -289v-301q0 -190 -115.5 -291.5t-316.5 -101.5q-123 0 -225 43l-97 -166l-92 53l98 170q-115 102 -114 293v301q0 190 115.5 290.5t316.5 100.5q125 0 225 -45l96 168zM276 362q0 -88 37 -143l389 676q-59 33 -151 33q-127 0 -201 -62.5 t-74 -181.5v-322zM821 362v322q0 84 -37 139l-389 -676q61 -31 154 -30q127 0 199.5 62t72.5 183z" />
<glyph unicode="&#xf9;" horiz-adv-x="1343" d="M41 1044h354v-692q0 -236 267 -235q129 0 203.5 63.5t74.5 181.5v545h-195v137h353v-907h194v-137h-317l-21 121q-104 -141 -327 -141q-184 0 -287.5 96t-103.5 286v545h-195v137zM811 1188h-127l-246 328h166z" />
<glyph unicode="&#xfa;" horiz-adv-x="1343" d="M649 1188h-129l207 328h168zM41 1044h354v-692q0 -236 267 -235q129 0 203.5 63.5t74.5 181.5v545h-195v137h353v-907h194v-137h-317l-21 121q-104 -141 -327 -141q-184 0 -287.5 96t-103.5 286v545h-195v137z" />
<glyph unicode="&#xfb;" horiz-adv-x="1343" d="M743 1516l222 -328h-148l-153 217l-154 -217h-143l221 328h155zM41 1044h354v-692q0 -236 267 -235q129 0 203.5 63.5t74.5 181.5v545h-195v137h353v-907h194v-137h-317l-21 121q-104 -141 -327 -141q-184 0 -287.5 96t-103.5 286v545h-195v137z" />
<glyph unicode="&#xfc;" horiz-adv-x="1343" d="M387 1239v221h139v-221h-139zM807 1239v221h139v-221h-139zM41 1044h354v-692q0 -236 267 -235q129 0 203.5 63.5t74.5 181.5v545h-195v137h353v-907h194v-137h-317l-21 121q-104 -141 -327 -141q-184 0 -287.5 96t-103.5 286v545h-195v137z" />
<glyph unicode="&#xfd;" horiz-adv-x="1335" d="M307 -410v138h199l115 272h-54l-374 907h-162v137h508v-137h-181l316 -764l313 764h-180v137h498v-137h-160l-494 -1179h172v-138h-516zM692 1188h-129l207 328h168z" />
<glyph unicode="&#xfe;" horiz-adv-x="1277" d="M102 1378v138h355v-576q106 125 311 125q182 0 286.5 -101.5t104.5 -289.5v-301q0 -188 -104.5 -290.5t-286.5 -102.5q-207 0 -311 118v-370h194v-138h-549v138h195v1650h-195zM1001 362v322q0 117 -70.5 180.5t-195.5 63.5q-129 0 -203.5 -66.5t-74.5 -187.5v-301 q0 -121 74.5 -188.5t201.5 -67.5q125 0 196.5 64t71.5 181z" />
<glyph unicode="&#xff;" horiz-adv-x="1335" d="M307 -410v138h199l115 272h-54l-374 907h-162v137h508v-137h-181l316 -764l313 764h-180v137h498v-137h-160l-494 -1179h172v-138h-516zM387 1239v221h139v-221h-139zM807 1239v221h139v-221h-139z" />
<glyph unicode="&#x152;" horiz-adv-x="2091" d="M1063 0v127q-141 -147 -397 -147q-250 0 -396.5 135t-146.5 379v446q0 246 146.5 380t398.5 134q254 0 395 -147v127h926v-410h-170v262h-586v-493h530v-148h-530v-498h586v263h170v-410h-926zM1063 494v446q0 174 -101.5 270.5t-281.5 96.5q-184 0 -285.5 -96.5 t-101.5 -270.5v-446q0 -174 101.5 -270.5t281.5 -96.5q184 0 285.5 96.5t101.5 270.5z" />
<glyph unicode="&#x153;" horiz-adv-x="1802" d="M1524 324h159q-10 -164 -120.5 -254t-296.5 -90q-254 0 -365 159q-104 -160 -360 -159q-195 0 -308.5 101t-113.5 292v301q0 190 113.5 290.5t310.5 100.5q252 0 358 -160q104 160 361 160q195 0 308 -100.5t113 -290.5v-197h-702v-112q0 -117 72.5 -182.5t203.5 -65.5 q125 0 193 56.5t74 150.5zM821 362v322q0 119 -72.5 181.5t-197.5 62.5q-127 0 -201 -62.5t-74 -181.5v-322q0 -121 73 -183t200 -62t199.5 62t72.5 183zM981 684v-80h545v80q0 119 -73 181.5t-200 62.5t-199.5 -62.5t-72.5 -181.5z" />
<glyph unicode="&#x178;" horiz-adv-x="1443" d="M1444 1434v-148h-168l-469 -737v-402h235v-147h-639v147h236v402l-469 737h-170v148h549v-148h-180l362 -577l365 577h-199v148h547zM412 1552v220h139v-220h-139zM893 1552v220h139v-220h-139z" />
<glyph unicode="&#x2c6;" horiz-adv-x="679" d="M418 1516l221 -328h-147l-154 217l-154 -217h-143l221 328h156z" />
<glyph unicode="&#x2dc;" horiz-adv-x="782" d="M131 1253l-90 54q104 203 219 202q53 0 105.5 -37.5t94.5 -76.5t68 -39q47 0 125 137l88 -53q-57 -113 -109 -158t-110 -45q-53 0 -104 38t-93 76t-71 38q-49 -1 -123 -136z" />
<glyph unicode="&#x2000;" horiz-adv-x="931" />
<glyph unicode="&#x2001;" horiz-adv-x="1863" />
<glyph unicode="&#x2002;" horiz-adv-x="931" />
<glyph unicode="&#x2003;" horiz-adv-x="1863" />
<glyph unicode="&#x2004;" horiz-adv-x="620" />
<glyph unicode="&#x2005;" horiz-adv-x="464" />
<glyph unicode="&#x2006;" horiz-adv-x="309" />
<glyph unicode="&#x2007;" horiz-adv-x="309" />
<glyph unicode="&#x2008;" horiz-adv-x="231" />
<glyph unicode="&#x2009;" horiz-adv-x="372" />
<glyph unicode="&#x200a;" horiz-adv-x="102" />
<glyph unicode="&#x2010;" horiz-adv-x="530" d="M61 455v137h408v-137h-408z" />
<glyph unicode="&#x2011;" horiz-adv-x="530" d="M61 455v137h408v-137h-408z" />
<glyph unicode="&#x2012;" horiz-adv-x="530" d="M61 455v137h408v-137h-408z" />
<glyph unicode="&#x2013;" horiz-adv-x="1044" d="M10 455v137h1024v-137h-1024z" />
<glyph unicode="&#x2014;" horiz-adv-x="2068" d="M10 455v137h2048v-137h-2048z" />
<glyph unicode="&#x2018;" horiz-adv-x="466" d="M324 1634v-487h-181l62 487h119z" />
<glyph unicode="&#x2019;" horiz-adv-x="466" d="M143 1147v487h181l-62 -487h-119z" />
<glyph unicode="&#x201a;" horiz-adv-x="466" d="M143 -236v488h181l-62 -488h-119z" />
<glyph unicode="&#x201c;" horiz-adv-x="747" d="M604 1634v-487h-178l61 487h117zM324 1634v-487h-181l62 487h119z" />
<glyph unicode="&#x201d;" horiz-adv-x="747" d="M143 1147v487h181l-62 -487h-119zM426 1147v487h178l-61 -487h-117z" />
<glyph unicode="&#x201e;" horiz-adv-x="747" d="M143 -236v488h181l-62 -488h-119zM426 -236v488h178l-61 -488h-117z" />
<glyph unicode="&#x2022;" horiz-adv-x="622" d="M72 716.5q0 106.5 66.5 173t173 66.5t173 -66.5t66.5 -173t-66.5 -173t-173 -66.5t-173 66.5t-66.5 173z" />
<glyph unicode="&#x2026;" horiz-adv-x="1767" d="M143 0v252h181v-252h-181zM795 0v252h178v-252h-178zM1444 0v252h180v-252h-180z" />
<glyph unicode="&#x202f;" horiz-adv-x="372" />
<glyph unicode="&#x2039;" horiz-adv-x="526" d="M465 135l-424 328v139l424 328v-162l-287 -236l287 -231v-166z" />
<glyph unicode="&#x203a;" horiz-adv-x="526" d="M51 930l424 -328v-139l-424 -328v164l289 233l-289 234v164z" />
<glyph unicode="&#x205f;" horiz-adv-x="464" />
<glyph unicode="&#x20ac;" horiz-adv-x="1406" d="M61 655v127h144v158q0 240 142 377t390 137q281 0 404 -160l20 140h133v-461h-170v8q0 154 -97 240t-269 86q-180 0 -281.5 -96.5t-101.5 -270.5v-158h473v-127h-473v-161q0 -174 101.5 -270.5t279.5 -96.5q172 0 270 87t98 241v6h170v-6q0 -225 -143 -350t-395 -125 q-258 0 -404.5 134t-146.5 380v161h-144z" />
<glyph unicode="&#x2122;" horiz-adv-x="1208" d="M51 1335v99h469v-99h-178v-438h-111v438h-180zM991 897v354l-153 -266l-154 266v-354h-106v537h102l158 -271l155 271h103v-537h-105z" />
<glyph unicode="&#xe000;" horiz-adv-x="1045" d="M0 1045h1045v-1045h-1045v1045z" />
<glyph unicode="&#xfb01;" horiz-adv-x="1368" d="M748 0v137h184v770h-506v-770h184v-137h-538v137h194v770h-225v137h225v93q0 78 7.5 134t25.5 110.5t52 83t87.5 52t129 19.5t180.5 -16v-131q-197 27 -259.5 -22.5t-62.5 -213.5v-109h666v-907h194v-137h-538zM932 1249v232h160v-232h-160z" />
<glyph unicode="&#xfb02;" horiz-adv-x="1368" d="M748 0v137h184v1258q-111 12 -195 12q-176 0 -243.5 -56.5t-67.5 -197.5v-109h322v-137h-322v-770h184v-137h-538v137h194v770h-225v137h225v93q0 100 16.5 166.5t64.5 126t145.5 87t248.5 27.5q133 0 351 -28v-1379h194v-137h-538z" />
<glyph unicode="&#xfb03;" horiz-adv-x="2228" d="M1792 1249v232h160v-232h-160zM1952 1044v-907h194v-137h-549v137h195v770h-195v137h355zM820 0v137h194v770h-225v137h225v93q0 78 7.5 134t25.5 110.5t52 83t87 52.5q45 20 107 20q11 0 22 -1q76 -4 181 -16v-131q-69 9 -122 9q-97 0 -138 -32q-62 -49 -62 -213v-109 h322v-137h-322v-770h195v-137h-549zM72 0v137h194v770h-225v137h225v93q0 78 7.5 134t25.5 110.5t52 83t87 52.5q45 20 107 20q11 0 22 -1q76 -4 181 -16v-131q-69 9 -122 9q-97 0 -138 -32q-62 -49 -62 -213v-109h322v-137h-322v-770h195v-137h-549z" />
<glyph unicode="&#xfb04;" horiz-adv-x="2228" d="M1952 1516v-1379h194v-137h-549v137h195v1241h-195v138h355zM820 0v137h194v770h-225v137h225v93q0 78 7.5 134t25.5 110.5t52 83t87 52.5q45 20 107 20q11 0 22 -1q76 -4 181 -16v-131q-69 9 -122 9q-97 0 -138 -32q-62 -49 -62 -213v-109h322v-137h-322v-770h195v-137 h-549zM72 0v137h194v770h-225v137h225v93q0 78 7.5 134t25.5 110.5t52 83t87 52.5q45 20 107 20q11 0 22 -1q76 -4 181 -16v-131q-69 9 -122 9q-97 0 -138 -32q-62 -49 -62 -213v-109h322v-137h-322v-770h195v-137h-549z" />
<glyph horiz-adv-x="0" />
</font>
</defs>
</svg>
